<?xml version="1.0" encoding="UTF-8"?>
<svg version="1.1" xmlns="http://www.w3.org/2000/svg" width="64" height="64">
<path d="M0 0 C1.9375 1.6875 1.9375 1.6875 3 4 C2.9375 6.5625 2.9375 6.5625 2 9 C-0.0625 10.8125 -0.0625 10.8125 -2 12 C-1.01 14.31 -0.02 16.62 1 19 C3.31 19 5.62 19 8 19 C8.495 20.98 8.495 20.98 9 23 C5.54337669 25.30441554 4.05142119 25.25860135 0 25 C-0.66 24.67 -1.32 24.34 -2 24 C-0.27773504 27.24849977 -0.27773504 27.24849977 3 28 C3 29.65 3 31.3 3 33 C1.02 33 -0.96 33 -3 33 C-2.09541512 37.82445268 0.50385763 41.8550371 2.8203125 46.125 C4 49 4 49 3 53 C8.61 53.33 14.22 53.66 20 54 C19.67 53.34 19.34 52.68 19 52 C18.55991161 48.49408581 18.18466998 44.98869736 17.83789062 41.47265625 C17.3650858 37.06749912 16.58859599 33.17421875 15 29 C13.68 29.33 12.36 29.66 11 30 C10.34 28.02 9.68 26.04 9 24 C10.91282125 23.15787744 12.83042473 22.32661136 14.75 21.5 C15.81734375 21.0359375 16.8846875 20.571875 17.984375 20.09375 C21 19 21 19 25 19 C25.495 21.475 25.495 21.475 26 24 C24.68 24.99 23.36 25.98 22 27 C22.2165625 27.78761719 22.433125 28.57523438 22.65625 29.38671875 C24.70814194 37.41379602 25.36538833 44.73139734 25 53 C26.43859375 53.19142578 26.43859375 53.19142578 27.90625 53.38671875 C31 54 31 54 32.5 55.8125 C33 58 33 58 31 62 C11.2 62 -8.6 62 -29 62 C-29.66 60.35 -30.32 58.7 -31 57 C-30.34 56.01 -29.68 55.02 -29 54 C-26.29443359 53.56762695 -26.29443359 53.56762695 -22.8984375 53.48828125 C-21.68671875 53.45283203 -20.475 53.41738281 -19.2265625 53.38085938 C-17.32003906 53.34702148 -17.32003906 53.34702148 -15.375 53.3125 C-14.09625 53.27833984 -12.8175 53.24417969 -11.5 53.20898438 C-8.3336471 53.12628113 -5.16683624 53.06147139 -2 53 C-4.97 47.555 -4.97 47.555 -8 42 C-8.598125 43.27875 -9.19625 44.5575 -9.8125 45.875 C-11.31923802 49.09630198 -11.9072219 49.93814793 -15 52 C-16.97265625 52.046875 -16.97265625 52.046875 -19.0625 51.75 C-19.75472656 51.66234375 -20.44695313 51.5746875 -21.16015625 51.484375 C-23 51 -23 51 -25 49 C-24.625 46.375 -24.625 46.375 -24 44 C-21.69 44.33 -19.38 44.66 -17 45 C-16.97421875 44.030625 -16.9484375 43.06125 -16.921875 42.0625 C-16.63967134 34.60988565 -15.931166 27.45109515 -14.1875 20.1875 C-14.03442383 19.51267578 -13.88134766 18.83785156 -13.72363281 18.14257812 C-12.92241992 15.03609328 -12.2596024 13.23682193 -9.86328125 11.05078125 C-9.24839844 10.70402344 -8.63351563 10.35726563 -8 10 C-8.3403125 8.3603125 -8.3403125 8.3603125 -8.6875 6.6875 C-9 3 -9 3 -7.9375 1.0625 C-5.10124887 -0.49286352 -3.17717433 -0.46333792 0 0 Z M-25 56 C-25 57.32 -25 58.64 -25 60 C-24.34 59.67 -23.68 59.34 -23 59 C-23.33 58.01 -23.66 57.02 -24 56 C-24.33 56 -24.66 56 -25 56 Z M26 56 C26 57.32 26 58.64 26 60 C26.66 59.67 27.32 59.34 28 59 C27.67 58.01 27.34 57.02 27 56 C26.67 56 26.34 56 26 56 Z " fill="#000000" transform="translate(31,1)"/>
</svg>
