<?xml version="1.0" encoding="UTF-8"?>
<svg version="1.1" xmlns="http://www.w3.org/2000/svg" width="512" height="512">
<path d="M0 0 C1.25911461 2.39721505 2.32950732 4.71523271 3.35546875 7.2109375 C3.81521843 8.29684677 3.81521843 8.29684677 4.28425598 9.4046936 C4.93059795 10.93754674 5.57163168 12.47264729 6.20776367 14.00976562 C7.18273389 16.36349388 8.17482743 18.70940675 9.16992188 21.0546875 C9.79529714 22.54384025 10.41967952 24.03341043 11.04296875 25.5234375 C11.3397905 26.22665131 11.63661224 26.92986511 11.94242859 27.65438843 C13.15420022 30.59744601 14 32.7843687 14 36 C8.96708428 38.12387443 3.93164674 40.24161108 -1.10620117 42.35375977 C-2.81881848 43.07279015 -4.53074101 43.79347778 -6.24194336 44.51586914 C-8.70504836 45.55533808 -11.17060983 46.58877529 -13.63671875 47.62109375 C-14.39836838 47.94403915 -15.16001801 48.26698456 -15.94474792 48.59971619 C-19.61374113 50.12888011 -23.03737031 51.42118892 -27 52 C-26.71390869 52.89154785 -26.42781738 53.7830957 -26.13305664 54.70166016 C-12.00713983 98.92788007 -2.00588687 143.80975846 3 190 C3.0751886 190.67772461 3.1503772 191.35544922 3.22784424 192.05371094 C6.3903992 220.68227115 6.34429104 249.22554464 6 278 C6.98282959 277.97905273 7.96565918 277.95810547 8.97827148 277.93652344 C12.66269062 277.86352687 16.34704731 277.81798642 20.03198242 277.78027344 C21.61965726 277.76029255 23.20725979 277.73309797 24.79467773 277.69824219 C37.08958999 277.43524941 45.92057876 278.40239331 55.2109375 287.08203125 C61.51443133 293.83970695 64.55567373 301.57978824 64.24609375 310.8671875 C63.02636802 321.43814379 57.95424564 329.13152556 49.7890625 335.75 C42.91206298 340.5548905 35.54292437 341.15292997 27.41520977 341.12863445 C26.29454309 341.13126401 26.29454309 341.13126401 25.15123668 341.13394669 C22.6457837 341.13860154 20.14038887 341.13614251 17.63493347 341.13371277 C15.82125673 341.135581 14.0075804 341.13788175 12.1939047 341.14057809 C7.20813925 341.14670099 2.22239056 341.14656192 -2.76337779 341.14538372 C-8.13977545 341.14517983 -13.51616771 341.15069726 -18.89256287 341.15544128 C-29.42653926 341.16375103 -39.96051007 341.16649627 -50.49448947 341.16705366 C-59.05596038 341.16752866 -67.61742944 341.16958259 -76.17889977 341.17275429 C-100.44637334 341.18156166 -124.71384249 341.18617352 -148.98131768 341.18542381 C-150.2898388 341.18538386 -151.59835992 341.1853439 -152.9465332 341.18530273 C-154.2566499 341.18526185 -155.5667666 341.18522097 -156.9165838 341.18517885 C-178.15266929 341.18477233 -199.38873705 341.19434314 -220.62481741 341.2084411 C-242.4241213 341.22279891 -264.22341654 341.22971162 -286.02272528 341.22884732 C-298.26369614 341.22851515 -310.50464841 341.23127102 -322.74561501 341.24202538 C-333.16717657 341.25112253 -343.58871112 341.25331208 -354.01027492 341.24651595 C-359.32777519 341.24324682 -364.64522361 341.24320828 -369.96271896 341.2518692 C-374.83144498 341.25971766 -379.7000779 341.25831968 -384.5688016 341.24958507 C-386.32920184 341.24804644 -388.08960896 341.24987989 -389.85000107 341.25544515 C-403.3627744 341.29533142 -414.05037664 340.84037359 -424.6875 331.6875 C-430.91956076 324.44483479 -434.63444884 316.95570343 -434.30859375 307.19921875 C-432.86859367 296.9369397 -427.65668567 289.57731552 -419.75 283.1875 C-410.62977272 277.34650682 -400.01105857 277.5727676 -389.55464172 277.63923645 C-388.01072076 277.63792612 -386.46680046 277.63529552 -384.92288369 277.63146895 C-380.70626437 277.6247967 -376.48987592 277.63671141 -372.27328598 277.65180314 C-367.71651825 277.66480658 -363.15976264 277.660371 -358.60298157 277.65809631 C-350.71665191 277.65652629 -342.83039695 277.66590707 -334.94408607 277.68280983 C-323.5419364 277.70723214 -312.1398227 277.71500841 -300.7376497 277.7187738 C-282.23661906 277.72533322 -263.7356282 277.74528055 -245.23461914 277.77368164 C-227.26684772 277.80123541 -209.29908712 277.82246254 -191.33129883 277.83520508 C-190.22302643 277.83599325 -189.11475404 277.83678142 -187.97289763 277.83759347 C-182.41280017 277.8415087 -176.85270263 277.8452998 -171.29260504 277.84902918 C-125.19504249 277.88010921 -79.0975233 277.93293113 -33 278 C-33.2561656 270.78369264 -33.51758751 263.5675884 -33.78239441 256.35159302 C-33.87159273 253.90489857 -33.95965716 251.45816247 -34.04649353 249.01138306 C-36.11690106 190.77027539 -43.69578029 131.92107456 -62.27368164 76.43945312 C-63.25839222 73.49258481 -64 71.13216837 -64 68 C-64.85231201 68.35304199 -65.70462402 68.70608398 -66.58276367 69.06982422 C-69.76023607 70.38581926 -72.93781992 71.70154448 -76.11547852 73.01708984 C-77.48791879 73.58534189 -78.86031521 74.15369987 -80.23266602 74.72216797 C-82.21098352 75.54162339 -84.18946106 76.36069139 -86.16796875 77.1796875 C-87.35672607 77.67194824 -88.5454834 78.16420898 -89.77026367 78.67138672 C-90.83607666 79.1098291 -91.90188965 79.54827148 -93 80 C-94.32511597 80.61319092 -94.32511597 80.61319092 -95.67700195 81.23876953 C-98.36256393 82.1188097 -99.39225336 81.99573077 -102 81 C-103.35772541 78.4749433 -104.42557683 76.12214535 -105.453125 73.46484375 C-105.75820984 72.71159317 -106.06329468 71.95834259 -106.37762451 71.18226624 C-107.34962153 68.77288642 -108.29993718 66.35560182 -109.25 63.9375 C-109.90484101 62.3034711 -110.56107413 60.66999934 -111.21875 59.03710938 C-112.82873045 55.03102806 -114.41931726 51.01772656 -116 47 C-113.33546766 43.75248864 -110.1861834 42.65768782 -106.3359375 41.12890625 C-105.65231644 40.85466827 -104.96869537 40.5804303 -104.26435852 40.29788208 C-102.76469216 39.6972817 -101.26360957 39.10020864 -99.76132202 38.50619507 C-96.47776273 37.20767849 -93.2011366 35.89205392 -89.92381287 34.57789612 C-88.14419837 33.8646156 -86.36420912 33.15226949 -84.58387756 32.44078064 C-74.3167909 28.33609441 -64.07974029 24.15818499 -53.84381104 19.97653198 C-50.78300724 18.72650499 -47.72142187 17.47841063 -44.65966797 16.23071289 C-43.68171265 15.83168259 -42.70375732 15.43265228 -41.69616699 15.02153015 C-39.75390854 14.22905129 -37.81128652 13.43746284 -35.86828613 12.64680481 C-30.65559897 10.51931779 -25.46318195 8.35160666 -20.28759766 6.13525391 C-19.18704544 5.66690628 -18.08649323 5.19855865 -16.95259094 4.71601868 C-14.82882049 3.8103901 -12.70836419 2.89693984 -10.59172058 1.97477722 C-9.64082047 1.57035904 -8.68992035 1.16594086 -7.71020508 0.74926758 C-6.8712117 0.38674393 -6.03221832 0.02422028 -5.1678009 -0.34928894 C-3 -1 -3 -1 0 0 Z M-404.9375 299.5625 C-407.84595037 303.98926006 -408.43330588 307.71366821 -408 313 C-406.02354531 319.16749113 -402.34368958 323.41687636 -397 327 C-391.62563291 328.7914557 -386.93205434 328.71176628 -381.8125 326.375 C-377.84934882 324.16718153 -375.53327521 321.76152986 -373 318 C-372.67 316.35 -372.34 314.7 -372 313 C-248.58 313 -125.16 313 2 313 C2.33 314.65 2.66 316.3 3 318 C6.17694363 323.22383349 10.10062553 326.270873 16 328 C21.34606053 328.7370297 25.48854628 328.04032751 30 325 C34.71294072 320.43363399 37.62522267 316.31053307 38.375 309.6875 C37.83463179 304.37387924 36.27875608 300.09749139 32.28125 296.41796875 C26.73271054 292.33885182 21.83511764 291.22454095 15 292 C8.59858754 293.89417909 5.30492036 297.31966813 2 303 C2 303.99 2 304.98 2 306 C-121.42 306 -244.84 306 -372 306 C-372.495 303.525 -372.495 303.525 -373 301 C-375.93343116 296.18917289 -379.7416462 293.74037551 -385 292 C-393.01746158 290.61478412 -400.05465936 292.95877284 -404.9375 299.5625 Z " fill="#000000" transform="translate(441,161)"/>
<path d="M0 0 C11.09591805 8.5288259 17.09454538 18.3064752 20 32 C20.79914814 41.90025365 19.32578553 51.08210606 17.15625 60.7109375 C16.86352486 62.05828969 16.57208684 63.40592208 16.28186035 64.7538147 C15.52519031 68.25162012 14.75143988 71.7454158 13.97369385 75.23858643 C13.17885386 78.82340592 12.4007449 82.41185247 11.62109375 86 C10.09680223 93.00359151 8.5543931 100.00302038 7 107 C-3.79103552 100.91706496 -12.82207664 93.15206427 -17.4375 81.3125 C-19.26556098 70.54725203 -15.4910136 62.03749659 -10.05078125 52.875 C-7.52917704 48.3754832 -7.43816914 44.01691218 -8 39 C-9.80970511 32.60915565 -12.5423207 28.71122192 -18 25 C-18.86625 24.401875 -19.7325 23.80375 -20.625 23.1875 C-26.92270967 20.97163919 -34.09005499 20.79326411 -40.3125 23.4375 C-51.01408092 29.85844855 -57.71572289 45.43267042 -60.9375 57.0625 C-65.12582432 77.10662354 -61.69947088 94.54085616 -51.0703125 111.95703125 C-44.3576118 121.82343473 -36.57645039 129.8483123 -27 137 C-26.10410156 137.68707031 -25.20820313 138.37414062 -24.28515625 139.08203125 C-17.82045276 143.93287763 -11.05246391 148.06145122 -4 152 C-4.36931394 160.34649494 -6.02792684 168.75745783 -10.19140625 176.1015625 C-11.23318111 178.54746869 -10.84250108 179.51137694 -10 182 C-8.15305355 184.37717032 -6.27214727 186.65714711 -4.3125 188.9375 C7.78667731 203.43456032 17.7778252 219.55359045 27 236 C27.37431152 236.65822754 27.74862305 237.31645508 28.13427734 237.99462891 C56.99479555 289.0286245 56.99479555 289.0286245 53 311 C51.21286004 317.25498988 47.38120972 321.46754945 42 325 C36.32206554 328.12817595 30.39482179 329.00462457 24 328 C16.46459216 325.59933909 11.98121021 321.7699165 8 315 C6.15749457 310.70752242 4.70586378 306.31118435 3.25 301.875 C-8.74476527 266.99207889 -26.87599453 234.25686977 -52.08984375 207.12109375 C-54 205 -54 205 -55.37109375 202.84375 C-57.65300166 200.26087102 -59.81468979 199.91159848 -63.125 199.0625 C-76.26749258 195.29916694 -85.43685487 188.53950947 -92.52734375 176.78125 C-99.59150971 163.43990739 -98.621149 150.29146913 -95.578125 135.9296875 C-95.32202454 134.67824448 -95.06592407 133.42680145 -94.80206299 132.13743591 C-94.10838035 128.74984266 -93.4012677 125.36519119 -92.69094849 121.9810524 C-91.94808703 118.43300723 -91.21599922 114.88273766 -90.48242188 111.33276367 C-89.2692343 105.46925837 -88.04780711 99.60751634 -86.82226562 93.74658203 C-85.34699076 86.68816594 -83.89693014 79.62483746 -82.45697021 72.55914307 C-81.39954146 67.37179127 -80.33026766 62.18690283 -79.25964355 57.0022583 C-78.75798115 54.56557204 -78.25962448 52.12820258 -77.76477051 49.69012451 C-69.91742737 11.11013776 -69.91742737 11.11013776 -51.87890625 -1.30859375 C-35.89219067 -10.7010603 -15.35474785 -10.82118434 0 0 Z " fill="#000000" transform="translate(222,108)"/>
<path d="M0 0 C1.07043001 0.91652944 2.14071229 1.83323142 3.2109375 2.75 C4.17338379 3.57371094 4.17338379 3.57371094 5.15527344 4.4140625 C6.58307395 5.64156279 8.00071377 6.88088721 9.4140625 8.125 C16.15531954 13.8419671 24.20341777 19.28348798 33.16015625 20.390625 C36.76434187 21.16401284 37.59921665 22.33827826 39.6875 25.3125 C40.52861328 26.48232422 40.52861328 26.48232422 41.38671875 27.67578125 C42.18529297 28.82626953 42.18529297 28.82626953 43 30 C43.53214111 30.61439941 44.06428223 31.22879883 44.61254883 31.86181641 C46.29863962 34.46022977 46.23769737 35.50906411 45.8125 38.53515625 C45.69358398 39.41727783 45.57466797 40.29939941 45.45214844 41.20825195 C45.30293945 42.15015381 45.15373047 43.09205566 45 44.0625 C44.85336914 45.04114014 44.70673828 46.01978027 44.55566406 47.02807617 C40.49064042 72.72542655 32.19509423 99.42195411 11.125 116.3125 C-2.63938465 125.99143981 -18.86338799 128.15053663 -35.1953125 125.3828125 C-47.76528353 122.7775971 -63.68238119 117.34513368 -71.6796875 106.78125 C-75.56291282 99.37012717 -76.72555186 91.70900669 -74.265625 83.5703125 C-71.44844039 77.45101805 -66.99014418 73.07186881 -61 70 C-52.27028617 67.33258744 -44.87586286 68.95268159 -37 73 C-29.80724485 76.32664926 -23.86024949 78.62008316 -16 76 C-14.91169403 74.2376124 -14.91169403 74.2376124 -14 72 C-13.54882812 71.12988281 -13.09765625 70.25976562 -12.6328125 69.36328125 C-8.23414161 60.46337979 -5.85518551 51.71244177 -4 42 C-3.79632813 40.94039063 -3.59265625 39.88078125 -3.3828125 38.7890625 C-1.28771389 25.99284481 -0.83582979 12.9244548 0 0 Z " fill="#000000" transform="translate(127,293)"/>
<path d="M0 0 C10.39521405 6.64225913 17.03844046 15.92789635 19.9765625 27.87890625 C22.04862928 40.88688106 20.12729174 52.47850546 12.6484375 63.40234375 C5.33291055 72.81769788 -4.69942273 79.02352948 -16.6015625 80.52734375 C-29.57111142 81.64046498 -40.78161416 78.98401948 -51.09375 70.8515625 C-60.41228717 62.21522353 -65.52618019 51.91632585 -66.06982422 39.23461914 C-66.23972163 27.41890779 -63.62879221 17.46368141 -55.6015625 8.52734375 C-54.81458984 7.60308594 -54.81458984 7.60308594 -54.01171875 6.66015625 C-40.40222852 -8.26224951 -16.90383864 -9.56868944 0 0 Z " fill="#000000" transform="translate(244.6015625,15.47265625)"/>
<path d="M0 0 C4.39604767 2.96477634 7.39289906 6.63409623 8.6875 11.8125 C8.97981384 17.25819859 7.75861557 21.06658238 4.8125 25.625 C-0.5517868 34.00831777 -2.28100362 42.2378486 -0.16015625 52.00390625 C5.09693936 69.42257787 21.72963439 80.52731958 36.90234375 88.8359375 C44.69236454 92.97548232 52.75291065 96.6776344 60.84765625 100.1796875 C65.48088763 102.26771225 68.95374828 104.03015695 71.1328125 108.79296875 C72.64369536 114.29385916 72.65112798 119.65656335 69.9375 124.75 C66.76359432 129.07003829 64.14998724 131.18034465 58.8046875 132.15625 C36.82417527 133.68799301 8.9529288 112.2460588 -6.82421875 98.98046875 C-20.16658881 87.35564083 -32.84706284 70.83731045 -34.51586914 52.58862305 C-35.29034209 34.36812797 -31.5491916 17.78216441 -19.765625 3.30078125 C-14.29141831 -2.30586593 -7.02158125 -2.51717064 0 0 Z " fill="#000000" transform="translate(200.3125,136.1875)"/>
<path d="M0 0 C0.721875 0.7425 1.44375 1.485 2.1875 2.25 C8.55881219 8.47972747 14.08887927 12.05213603 23.125 12.4375 C31.54275145 12.20334836 39.63895768 9.42648889 47.375 6.25 C52.11515598 4.61546345 56.02394759 3.92716644 60.91796875 5.69140625 C65.27374787 7.911089 67.75173008 10.58993208 70 15 C71.61585503 20.70935444 70.8816483 25.83784196 68 31 C56.55343151 41.93280868 35.30879201 45.40499187 20.0546875 45.21484375 C9.96809885 44.50542895 0.94214698 41.61706773 -8 37 C-7.25932307 29.57471382 -5.64020203 22.39759392 -4 15.125 C-3.72671875 13.89007813 -3.4534375 12.65515625 -3.171875 11.3828125 C-1.13225446 2.26450893 -1.13225446 2.26450893 0 0 Z " fill="#000000" transform="translate(248,159)"/>
</svg>
