<?xml version="1.0" encoding="UTF-8"?>
<svg version="1.1" xmlns="http://www.w3.org/2000/svg" width="512" height="512">
<path d="M0 0 C43.56 0 87.12 0 132 0 C134.31 4.62 136.62 9.24 139 14 C140.65 15.98 142.3 17.96 144 20 C144 20.66 144 21.32 144 22 C101.43 22.495 101.43 22.495 58 23 C60.31 25.64 62.62 28.28 65 31 C66.79760742 33.70214844 66.79760742 33.70214844 68.10546875 36.109375 C68.60860596 37.01985596 69.11174316 37.93033691 69.63012695 38.8684082 C70.14406006 39.8193335 70.65799316 40.77025879 71.1875 41.75 C72.30744127 43.78130315 73.42989366 45.81122359 74.5546875 47.83984375 C75.12026367 48.86062012 75.68583984 49.88139648 76.26855469 50.93310547 C79.50441941 56.66476546 82.94260728 62.27562094 86.39331055 67.87988281 C86.86808838 68.6581543 87.34286621 69.43642578 87.83203125 70.23828125 C88.25202393 70.91930908 88.6720166 71.60033691 89.10473633 72.30200195 C90 74 90 74 90 76 C90.91773193 75.56357178 91.83546387 75.12714355 92.78100586 74.67749023 C109.80218409 66.58838149 126.84439761 58.55071946 144 50.75 C144.67425018 50.44270966 145.34850037 50.13541931 146.04318237 49.81881714 C161.6579597 42.70848898 173.67230969 37.65787371 191 38 C191.91394531 37.97035156 192.82789063 37.94070312 193.76953125 37.91015625 C204.67706811 38.01938766 214.32962518 43.47995254 224 48 C225.28661532 48.59962177 226.5732367 49.19923053 227.85986328 49.79882812 C235.06481295 53.16151432 242.2561862 56.55242387 249.44140625 59.95703125 C257.31380531 63.68648426 265.21231156 67.35691145 273.125 71 C274.23319092 71.51022705 275.34138184 72.0204541 276.4831543 72.54614258 C278.98827494 73.69851021 281.4938246 74.8499285 284 76 C284.26103516 75.29979736 284.52207031 74.59959473 284.79101562 73.87817383 C286.10488951 70.75029435 287.66254825 67.89609279 289.34375 64.94921875 C289.83201263 64.09158684 289.83201263 64.09158684 290.33013916 63.21662903 C291.38279912 61.37128743 292.44083303 59.52911356 293.5 57.6875 C294.03856628 56.74849854 294.03856628 56.74849854 294.5880127 55.79052734 C298.88377531 48.30569729 303.20522766 40.8372469 307.75 33.5 C308.32137695 32.56933716 308.32137695 32.56933716 308.90429688 31.61987305 C311.0413329 28.22930888 313.10129621 25.89870379 316 23 C287.62 22.67 259.24 22.34 230 22 C232.12774717 17.74450565 234.62771942 13.91353927 237.24609375 9.94921875 C239.4235139 6.43469592 239.4235139 6.43469592 242 0 C287.54 0 333.08 0 380 0 C380 7.26 380 14.52 380 22 C366.8 22.33 353.6 22.66 340 23 C341.98 25.31 343.96 27.62 346 30 C348.64659818 36.21375225 348.41394212 42.17241375 346.08947754 48.46481323 C344.86988618 51.15832125 343.5718401 53.79662924 342.234375 56.43359375 C341.746203 57.42346786 341.25803101 58.41334198 340.75506592 59.43321228 C339.71322649 61.54428029 338.66590097 63.65264838 337.61352539 65.75848389 C336.00976331 68.98038586 334.43322638 72.21416921 332.86523438 75.45361328 C330.22600609 80.90403569 327.55755004 86.33932708 324.87353516 91.76782227 C323.77770695 93.991612 322.68833358 96.21859255 321.60498047 98.44848633 C320.00718735 101.73516437 318.38874539 105.01092683 316.765625 108.28515625 C316.28941711 109.27572525 315.81320923 110.26629425 315.3225708 111.28688049 C311.88360974 118.14537913 308.27111627 122.80771393 301.38061523 126.34448242 C290.59231609 129.31510935 280.23039277 125.39903278 270.02416992 122.0378418 C267.41749531 121.18092366 264.80277219 120.35336026 262.18554688 119.52929688 C260.51768839 118.9938691 258.85034982 118.45681847 257.18359375 117.91796875 C256.01648109 117.54746651 256.01648109 117.54746651 254.82579041 117.16947937 C250.31547661 115.66971217 247.3207865 114.43068009 245.0168457 110.19067383 C244.6005188 109.20877075 244.6005188 109.20877075 244.17578125 108.20703125 C243.71655273 107.1387207 243.71655273 107.1387207 243.24804688 106.04882812 C242.93931641 105.31083984 242.63058594 104.57285156 242.3125 103.8125 C241.99216797 103.06291016 241.67183594 102.31332031 241.34179688 101.54101562 C240.55475259 99.69674768 239.77650856 97.8487286 239 96 C239.26554688 97.28648437 239.53109375 98.57296875 239.8046875 99.8984375 C244.25822222 122.3302773 247.03038816 146.27222362 244.46411133 169.13476562 C242.85248073 185.02970879 246.48580531 196.72766551 252.5 211.3125 C253.38138309 213.54534675 254.25776747 215.78017249 255.12939453 218.0168457 C256.89256177 222.5348629 258.67261344 227.04558469 260.46582031 231.55175781 C264.14669285 240.85442721 267.53374384 250.258551 270.875 259.6875 C271.33308044 260.9756662 271.33308044 260.9756662 271.80041504 262.28985596 C282.44873907 292.27003417 291.86706661 322.61135565 301.0625 353.0625 C301.27143387 353.75388943 301.48036774 354.44527885 301.69563293 355.15761948 C302.91468597 359.19253538 304.13040625 363.22843168 305.34152794 367.26573563 C305.88702492 369.08309278 306.43441458 370.8998815 306.98188782 372.71664429 C308.00535482 376.13964535 309.00911638 379.56742809 310 383 C310.18644451 383.64156414 310.37288902 384.28312828 310.56498337 384.94413376 C311.13919073 386.93573717 311.69919563 388.93085174 312.25561523 390.92749023 C312.58996078 392.11358383 312.92430634 393.29967743 313.26878357 394.52171326 C314.99160536 402.71691777 313.53692426 408.63649027 309.4375 415.6875 C304.56444096 420.31065858 298.76650875 423.25145456 292 423.625 C285.50261154 423.26631136 279.5155632 420.62407769 275.0078125 415.921875 C272.28402214 411.95807113 270.28751741 407.78649315 268.25 403.4375 C267.77594727 402.43412598 267.30189453 401.43075195 266.81347656 400.39697266 C257.57481621 380.69195233 248.88761552 360.72940634 240.28125 340.7421875 C239.27378078 338.4064051 238.26629371 336.0706304 237.25878906 333.73486328 C235.30442817 329.20292643 233.35978443 324.66699326 231.42089844 320.12841797 C225.49424169 306.32652746 219.07391988 292.86226549 212.25543213 279.47998047 C209.76999896 274.5702561 207.4111962 269.60137076 205.0625 264.625 C203.79147704 261.94151694 202.51929883 259.25977195 201.21850586 256.59057617 C200.3777623 254.80313279 199.59509829 252.98761548 198.86157227 251.15356445 C196.99817032 246.27940932 196.99817032 246.27940932 193.1394043 243.13867188 C190.96604783 242.82299746 189.00391354 242.81255968 186.8125 242.9375 C185.38152734 242.94896817 183.95053438 242.95818792 182.51953125 242.96484375 C181.35808594 242.97644531 180.19664062 242.98804688 179 243 C178.34 242.67 177.68 242.34 177 242 C176.58814453 243.31158081 176.58814453 243.31158081 176.16796875 244.6496582 C175.07358056 247.7889327 173.80294794 250.63758876 172.3125 253.60546875 C171.77753906 254.67345703 171.24257812 255.74144531 170.69140625 256.84179688 C170.13324219 257.94587891 169.57507813 259.04996094 169 260.1875 C168.47277344 261.24130859 167.94554687 262.29511719 167.40234375 263.38085938 C164.54820603 269.05877165 161.63771922 274.70137125 158.65901184 280.31465912 C153.19447887 290.62265489 147.92793822 301.02196514 142.7293396 311.46615601 C141.26599009 314.40593555 139.79992289 317.34434694 138.33325195 320.2824707 C135.21987381 326.52050431 132.10967897 332.7601217 129 339 C125.3886605 346.24650974 121.77591776 353.49231322 118.15975952 360.73641968 C116.73478048 363.59272833 115.31226688 366.45025493 113.88989258 369.30786133 C89.94657028 417.32986711 89.94657028 417.32986711 79 421 C71.64906372 421.87197313 65.02399814 421.58523072 59 417 C53.6310133 412.05046539 51.27618469 407.47620077 50.69238281 400.12817383 C50.75304543 393.62489549 53.09563639 387.87159302 55.296875 381.82421875 C55.75230628 380.54352247 56.20677342 379.26248297 56.66033936 377.98112488 C58.08393231 373.97894901 59.53840485 369.98842928 61 366 C61.45286377 364.76187561 61.90572754 363.52375122 62.37231445 362.24810791 C65.36984124 354.08631953 68.423146 345.9461974 71.49521255 337.81227493 C72.53222999 335.0647445 73.56636008 332.31613064 74.60054874 329.56753445 C77.54142805 321.75166785 80.48969794 313.93860681 83.44110107 306.12670898 C84.70259605 302.78772486 85.96306584 299.44835514 87.2230835 296.10881329 C98.74626293 265.56835222 110.39073576 235.07699056 122.2265625 204.65625 C122.55159256 203.82040878 122.87662262 202.98456757 123.21150208 202.12339783 C123.67649361 200.93019676 123.67649361 200.93019676 124.15087891 199.71289062 C124.44978027 198.94293259 124.74868164 198.17297455 125.05664062 197.37968445 C125.72539072 195.6927195 126.41434311 194.01369974 127.1171875 192.34065247 C127.48279785 191.46422592 127.8484082 190.58779938 128.22509766 189.68481445 C128.56030426 188.89734329 128.89551086 188.10987213 129.24087524 187.29853821 C130.53406833 183.3829055 130.16504424 179.73345866 129.75 175.6875 C129.61944719 173.92478884 129.49328121 172.16174828 129.37109375 170.3984375 C129.30519043 169.50350586 129.23928711 168.60857422 129.17138672 167.68652344 C127.63537327 143.6091844 130.38303988 119.59891623 135 96 C133.85646414 102.88393442 132.085279 108.99936851 127 114 C117.91401364 118.92526789 107.66429323 121.49376849 97.69702148 124.04882812 C95.19172132 124.69339323 92.69674807 125.37924699 90.21289062 126.10205078 C82.92373962 128.13924663 75.56919258 127.99595316 68.81640625 124.4609375 C63.94749483 120.54486681 60.95253676 115.49015178 58.23535156 109.95654297 C57.89485275 109.27934204 57.55435394 108.60214111 57.20353699 107.90441895 C56.09140019 105.68749437 54.99080685 103.46506586 53.890625 101.2421875 C53.11604283 99.69063612 52.34086648 98.13938125 51.56512451 96.58840942 C49.94648377 93.34801 48.333229 90.10500672 46.72412109 86.85986328 C44.6621408 82.70183386 42.58959451 78.54918476 40.51337051 74.39825249 C38.91451198 71.19999166 37.31983117 67.9996632 35.72655487 64.79861832 C34.96359601 63.26634206 34.19967123 61.73454635 33.43476105 60.20324326 C32.36815666 58.0656968 31.30686227 55.92559846 30.24707031 53.78466797 C29.93124496 53.15392365 29.61541962 52.52317932 29.2900238 51.87332153 C25.98145936 45.15841848 24.74686664 39.18311119 27.1875 31.875 C28.68757863 27.64670819 30.39684199 26.60315801 34 23 C22.78 22.67 11.56 22.34 0 22 C0 14.74 0 7.48 0 0 Z " fill="#000000" transform="translate(69,81)"/>
<path d="M0 0 C11.05598344 9.18208794 17.0505126 21.44167101 19.0625 35.5625 C20.45479253 51.03748912 15.98558248 65.84395807 6.18359375 77.8671875 C-2.18195443 86.82423909 -13.85574279 93.2754372 -26.1953125 93.80078125 C-35.47933294 94.01227971 -43.51585176 93.95047853 -51.9375 89.5625 C-52.79601562 89.12679687 -53.65453125 88.69109375 -54.5390625 88.2421875 C-66.01880644 81.89538043 -74.2882114 72.2257554 -78.26171875 59.62109375 C-82.5561919 44.51937292 -82.16371679 28.9877689 -74.4453125 14.9375 C-66.84287311 2.9626732 -56.64388858 -6.04728466 -42.6875 -9.75 C-27.03784384 -12.62555519 -12.71227065 -9.30929358 0 0 Z " fill="#000000" transform="translate(286.9375,18.4375)"/>
<path d="M0 0 C4.71542836 1.69043658 7.27288958 3.81193758 10 8 C11.79578789 12.482006 12.25653845 16.258656 12.2746582 21.07177734 C12.27976913 21.75230667 12.28488007 22.432836 12.29014587 23.13398743 C12.30396629 25.36806201 12.30309072 27.60182543 12.30078125 29.8359375 C12.30467264 31.40003573 12.30900822 32.96413292 12.31376648 34.52822876 C12.32121268 37.80140615 12.32094929 41.07447565 12.31567383 44.34765625 C12.30988458 48.52596682 12.32680453 52.70383333 12.3500185 56.88207054 C12.36480754 60.11130318 12.36562049 63.34043019 12.36250877 66.5696907 C12.3630195 68.1093496 12.36821019 69.64901481 12.37832069 71.18864059 C12.4827161 89.30986914 12.4827161 89.30986914 7.54804993 94.53842163 C2.8138901 98.6509676 -0.30050936 99.36626176 -6.39453125 99.26953125 C-10.4448297 98.85053486 -12.96081692 97.66113187 -16 95 C-21.34585584 87.35479297 -20.56443182 78.96835736 -20.49609375 70.0234375 C-20.49624893 68.367726 -20.497741 66.71201414 -20.50050354 65.05630493 C-20.50188315 61.59824426 -20.48940079 58.14060058 -20.46655273 54.68261719 C-20.43812459 50.25974803 -20.44092327 45.83756862 -20.45364285 41.41464806 C-20.46061003 38.00017445 -20.45279965 34.58585917 -20.44038582 31.17140579 C-20.43588455 29.5407942 -20.4355229 27.91016554 -20.43945122 26.27955246 C-20.4423749 23.99900405 -20.42580424 21.71939432 -20.40405273 19.43896484 C-20.39864975 18.14405121 -20.39324677 16.84913757 -20.38768005 15.51498413 C-19.89593777 11.05649755 -18.54401143 7.65401734 -15.46484375 4.35546875 C-9.99277683 0.17094699 -6.80914279 -0.63153938 0 0 Z " fill="#000000" transform="translate(51,41)"/>
<path d="M0 0 C4.05471225 2.06421714 6.44208168 3.72392822 8 8 C8.19542375 10.66391679 8.28353957 13.22279475 8.2746582 15.88623047 C8.2823246 17.07233917 8.2823246 17.07233917 8.29014587 18.28240967 C8.30403555 20.89407948 8.30308542 23.50548516 8.30078125 26.1171875 C8.30466887 27.93555804 8.30900368 29.75392768 8.31376648 31.57229614 C8.3212276 35.38367659 8.32093845 39.1949644 8.31567383 43.00634766 C8.30988308 47.88439386 8.32680113 52.76205989 8.3500185 57.64004326 C8.36477022 61.39590665 8.36562552 65.15167884 8.36250877 68.90756607 C8.36302138 70.70565671 8.36824784 72.50375253 8.37832069 74.30181503 C8.39069406 76.81978594 8.38388801 79.33702084 8.37231445 81.85498047 C8.38378006 82.96333755 8.38378006 82.96333755 8.39547729 84.09408569 C8.34782954 88.79770283 7.46910108 91.99903708 5 96 C1.43756869 99.14332174 -2.09679535 99.63107472 -6.7109375 99.4921875 C-10.72326905 98.62946775 -13.44515635 96.12512125 -16 93 C-17.20396453 89.38810642 -17.15543073 86.07946049 -17.16113281 82.3190918 C-17.16609772 81.53825226 -17.17106262 80.75741272 -17.17617798 79.95291138 C-17.19078895 77.36833821 -17.19760007 74.78382644 -17.203125 72.19921875 C-17.20887764 70.40184019 -17.21463536 68.60446165 -17.22039795 66.80708313 C-17.23090512 63.03683181 -17.23674954 59.26660179 -17.24023438 55.49633789 C-17.24571636 50.67097405 -17.26973922 45.84589277 -17.29820633 41.02061749 C-17.31685333 37.30680017 -17.32203942 33.59305061 -17.32357025 29.87919044 C-17.32659301 28.10062936 -17.33460881 26.32206937 -17.34775543 24.54355431 C-17.36485805 22.05184979 -17.36292549 19.5608316 -17.35644531 17.0690918 C-17.3656601 16.33796677 -17.37487488 15.60684174 -17.3843689 14.8535614 C-17.34628875 10.16660489 -16.45740621 6.98680095 -14 3 C-9.8731449 -0.64134274 -5.25719243 -0.84226146 0 0 Z " fill="#000000" transform="translate(473,41)"/>
<path d="M0 0 C3.12578143 1.6720747 5.39281175 3.7856235 7 7 C7.11610279 8.75482588 7.16961155 10.51395227 7.19287109 12.27246094 C7.21696548 13.92492828 7.21696548 13.92492828 7.24154663 15.61077881 C7.28595086 20.65620358 7.32706703 25.70149585 7.35009766 30.74707031 C7.36342106 33.40915107 7.39393202 36.06941594 7.43212891 38.73144531 C7.48688091 42.56599026 7.50877129 46.39949183 7.5234375 50.234375 C7.54610687 51.42206482 7.56877625 52.60975464 7.59213257 53.83343506 C7.56856539 63.04728381 7.56856539 63.04728381 4.59228516 66.73535156 C0.54016656 70.27532633 -2.19503277 70.38978997 -7.44921875 70.359375 C-11.55868504 69.78039966 -13.21349577 68.00085071 -16 65 C-17.27816662 62.44366677 -17.15501156 60.58986185 -17.19287109 57.72753906 C-17.20893402 56.62589417 -17.22499695 55.52424927 -17.24154663 54.38922119 C-17.28595086 49.34379642 -17.32706703 44.29850415 -17.35009766 39.25292969 C-17.36342106 36.59084893 -17.39393202 33.93058406 -17.43212891 31.26855469 C-17.48688091 27.43400974 -17.50877129 23.60050817 -17.5234375 19.765625 C-17.54610687 18.57793518 -17.56877625 17.39024536 -17.59213257 16.16656494 C-17.56856539 6.95271619 -17.56856539 6.95271619 -14.59228516 3.26464844 C-10.06126956 -0.69369595 -5.86632979 -0.82649669 0 0 Z " fill="#000000" transform="translate(505,57)"/>
<path d="M0 0 C3.12578143 1.6720747 5.39281175 3.7856235 7 7 C7.11610279 8.75482588 7.16961155 10.51395227 7.19287109 12.27246094 C7.21696548 13.92492828 7.21696548 13.92492828 7.24154663 15.61077881 C7.28595086 20.65620358 7.32706703 25.70149585 7.35009766 30.74707031 C7.36342106 33.40915107 7.39393202 36.06941594 7.43212891 38.73144531 C7.48688091 42.56599026 7.50877129 46.39949183 7.5234375 50.234375 C7.54610687 51.42206482 7.56877625 52.60975464 7.59213257 53.83343506 C7.56856539 63.04728381 7.56856539 63.04728381 4.59228516 66.73535156 C0.54016656 70.27532633 -2.19503277 70.38978997 -7.44921875 70.359375 C-11.55868504 69.78039966 -13.21349577 68.00085071 -16 65 C-17.27816662 62.44366677 -17.15501156 60.58986185 -17.19287109 57.72753906 C-17.20893402 56.62589417 -17.22499695 55.52424927 -17.24154663 54.38922119 C-17.28595086 49.34379642 -17.32706703 44.29850415 -17.35009766 39.25292969 C-17.36342106 36.59084893 -17.39393202 33.93058406 -17.43212891 31.26855469 C-17.48688091 27.43400974 -17.50877129 23.60050817 -17.5234375 19.765625 C-17.54610687 18.57793518 -17.56877625 17.39024536 -17.59213257 16.16656494 C-17.56856539 6.95271619 -17.56856539 6.95271619 -14.59228516 3.26464844 C-10.06126956 -0.69369595 -5.86632979 -0.82649669 0 0 Z " fill="#000000" transform="translate(17,57)"/>
</svg>
