<?xml version="1.0" encoding="UTF-8"?>
<svg version="1.1" xmlns="http://www.w3.org/2000/svg" width="64" height="64">
<path d="M0 0 C2.15234375 0.046875 2.15234375 0.046875 4.0625 0.4375 C6.51571644 3.27403151 7.0625 4.68873496 7.0625 8.4375 C13.0025 8.7675 18.9425 9.0975 25.0625 9.4375 C25.0625 7.7875 25.0625 6.1375 25.0625 4.4375 C27.44814077 5.01334432 29.72932784 5.65977595 32.0625 6.4375 C32.0625 9.4075 32.0625 12.3775 32.0625 15.4375 C28.0625 17.4375 28.0625 17.4375 25.0625 17.4375 C25.0625 15.7875 25.0625 14.1375 25.0625 12.4375 C23.4125 12.4375 21.7625 12.4375 20.0625 12.4375 C19.959375 13.46875 19.85625 14.5 19.75 15.5625 C19.07122203 19.38833945 17.95091205 22.07120025 16.0625 25.4375 C13.4225 25.4375 10.7825 25.4375 8.0625 25.4375 C8.44641983 32.86730091 10.07977206 39.22214354 12.625 46.1875 C16.55705242 57.00641526 16.55705242 57.00641526 16.0625 62.4375 C14.4125 62.4375 12.7625 62.4375 11.0625 62.4375 C9.76576398 59.89830994 8.47502163 57.35635762 7.1875 54.8125 C6.82269531 54.09964844 6.45789062 53.38679688 6.08203125 52.65234375 C4.06249073 48.64998163 2.3543889 44.74832927 1.0625 40.4375 C-1.41547903 42.68877701 -2.88467369 44.91969324 -4.41796875 47.88671875 C-4.85947266 48.73427734 -5.30097656 49.58183594 -5.75585938 50.45507812 C-6.20767578 51.33615234 -6.65949219 52.21722656 -7.125 53.125 C-7.82012695 54.46401367 -7.82012695 54.46401367 -8.52929688 55.83007812 C-9.67042997 58.02999451 -10.8062722 60.23247842 -11.9375 62.4375 C-13.5875 62.4375 -15.2375 62.4375 -16.9375 62.4375 C-16.38445766 54.75635639 -14.34414585 48.6313711 -11.46484375 41.54296875 C-9.33526259 36.0987257 -8.35791373 31.27657952 -7.9375 25.4375 C-10.5775 25.4375 -13.2175 25.4375 -15.9375 25.4375 C-16.80116822 23.65039414 -17.65318594 21.8576535 -18.5 20.0625 C-18.97566406 19.06476562 -19.45132812 18.06703125 -19.94140625 17.0390625 C-20.43447266 15.75128906 -20.43447266 15.75128906 -20.9375 14.4375 C-20.6075 13.7775 -20.2775 13.1175 -19.9375 12.4375 C-21.2575 12.4375 -22.5775 12.4375 -23.9375 12.4375 C-24.2675 14.0875 -24.5975 15.7375 -24.9375 17.4375 C-25.9275 17.4375 -26.9175 17.4375 -27.9375 17.4375 C-27.9375 16.7775 -27.9375 16.1175 -27.9375 15.4375 C-29.2575 15.4375 -30.5775 15.4375 -31.9375 15.4375 C-31.9375 12.4675 -31.9375 9.4975 -31.9375 6.4375 C-27.9375 4.4375 -27.9375 4.4375 -23.9375 4.4375 C-23.9375 6.0875 -23.9375 7.7375 -23.9375 9.4375 C-15.5225 8.9425 -15.5225 8.9425 -6.9375 8.4375 C-6.6075 6.4575 -6.2775 4.4775 -5.9375 2.4375 C-3.9375 0.4375 -3.9375 0.4375 0 0 Z M-14.9375 12.4375 C-13.9475 14.4175 -12.9575 16.3975 -11.9375 18.4375 C-10.7825 17.9425 -9.6275 17.4475 -8.4375 16.9375 C-0.80302756 14.11489575 4.71985659 15.29065283 12.0625 18.4375 C13.0525 16.4575 14.0425 14.4775 15.0625 12.4375 C5.1625 12.4375 -4.7375 12.4375 -14.9375 12.4375 Z " fill="#000000" transform="translate(31.9375,0.5625)"/>
</svg>
