<?xml version="1.0" encoding="UTF-8"?>
<svg version="1.1" xmlns="http://www.w3.org/2000/svg" width="512" height="512">
<path d="M0 0 C3.70776184 2.01133382 6.50877567 4.15501598 9.375 7.25 C13.22034619 5.43632198 16.57637355 3.10991406 20.05859375 0.6875 C26.84506507 -3.52400328 33.55550046 -3.70179638 41.375 -2.75 C47.68815862 -0.54290255 52.81792911 2.32921923 57.375 7.25 C60.58047958 5.81975239 62.9104446 4.04566927 65.5 1.6875 C69.559398 -1.99659516 71.5836449 -2.93154758 77.125 -3.0625 C78.15109375 -3.09988281 79.1771875 -3.13726562 80.234375 -3.17578125 C87.42377017 -2.20109957 92.24420717 3.81167327 97.125 8.75 C97.79660156 9.41386719 98.46820313 10.07773438 99.16015625 10.76171875 C100.12501953 11.73044922 100.12501953 11.73044922 101.109375 12.71875 C101.68913086 13.30076172 102.26888672 13.88277344 102.86621094 14.48242188 C106.76172454 19.046098 106.91350929 23.36853179 106.828125 29.203125 C106.10977243 34.03342679 103.72846746 36.8474574 100.375 40.25 C99.59125 41.075 98.8075 41.9 98 42.75 C97.195625 43.4925 97.195625 43.4925 96.375 44.25 C98.10302512 47.98020806 100.39028176 50.94921681 102.9375 54.15234375 C107.70399913 61.1078058 107.02305157 69.18175797 106.375 77.25 C104.76579543 83.28451713 100.57230879 87.77287062 96.375 92.25 C98.10302512 95.98020806 100.39028176 98.94921681 102.9375 102.15234375 C107.71259494 109.12034914 107.00145912 117.17111812 106.375 125.25 C104.36086368 133.80669993 96.17833084 141.73002312 89 146.3125 C81.81009881 150.46962394 71.90891512 150.53979439 63.89453125 148.671875 C53.55815775 143.98321073 45.08472606 133.09375095 37.25 125.1875 C36.28409319 124.21655904 35.31794838 123.24585477 34.3515625 122.27539062 C32.02370613 119.93589498 29.69823895 117.59407948 27.375 115.25 C23.44032451 116.84247554 20.79922224 119.55662369 17.87207031 122.52587891 C17.33503983 123.06261734 16.79800934 123.59935577 16.2447052 124.15235901 C14.47606141 125.92239283 12.71460176 127.69939857 10.953125 129.4765625 C9.72616534 130.70725344 8.49876251 131.9375027 7.27093506 133.16732788 C4.04432512 136.40156516 0.82376709 139.64176408 -2.39556885 142.88323975 C-5.68325672 146.19140534 -8.97663068 149.49389946 -12.26953125 152.796875 C-18.72693298 159.27571079 -25.17795568 165.76085869 -31.625 172.25 C-29.76745353 176.2899573 -27.08578719 178.99424301 -23.91796875 182.046875 C-22.76224389 183.18216351 -21.6066491 184.31758445 -20.45117188 185.453125 C-18.63695222 187.22404994 -16.82032481 188.99240822 -15.00073242 190.7578125 C2.36715761 207.64529897 2.36715761 207.64529897 2.66821289 218.79638672 C2.77583886 230.74423194 -0.12302907 236.26789422 -8.2421875 244.9765625 C-15.99481367 252.37333042 -23.25581912 253.71771695 -33.6640625 253.52734375 C-41.87920359 252.95212184 -46.7842199 248.72573134 -52.625 243.25 C-56.35520806 244.97802512 -59.32421681 247.26528176 -62.52734375 249.8125 C-69.4828058 254.57899913 -77.55675797 253.89805157 -85.625 253.25 C-91.65951713 251.64079543 -96.14787062 247.44730879 -100.625 243.25 C-103.83047958 244.68024761 -106.1604446 246.45433073 -108.75 248.8125 C-112.809398 252.49659516 -114.8336449 253.43154758 -120.375 253.5625 C-121.40109375 253.59988281 -122.4271875 253.63726562 -123.484375 253.67578125 C-130.67377017 252.70109957 -135.49420717 246.68832673 -140.375 241.75 C-141.04660156 241.08613281 -141.71820313 240.42226563 -142.41015625 239.73828125 C-143.37501953 238.76955078 -143.37501953 238.76955078 -144.359375 237.78125 C-144.93913086 237.19923828 -145.51888672 236.61722656 -146.11621094 236.01757812 C-150.01172454 231.453902 -150.16350929 227.13146821 -150.078125 221.296875 C-149.35977243 216.46657321 -146.97846746 213.6525426 -143.625 210.25 C-142.84125 209.425 -142.0575 208.6 -141.25 207.75 C-140.445625 207.0075 -140.445625 207.0075 -139.625 206.25 C-141.35302512 202.51979194 -143.64028176 199.55078319 -146.1875 196.34765625 C-150.95399913 189.3921942 -150.27305157 181.31824203 -149.625 173.25 C-148.01579543 167.21548287 -143.82230879 162.72712938 -139.625 158.25 C-141.35302512 154.51979194 -143.64028176 151.55078319 -146.1875 148.34765625 C-150.96259494 141.37965086 -150.25145912 133.32888188 -149.625 125.25 C-148.86259746 122.01106839 -147.65392662 119.86726036 -145.625 117.25 C-145.01527344 116.43015625 -144.40554687 115.6103125 -143.77734375 114.765625 C-137.66401712 107.26542754 -130.85108833 102.2771287 -121.16796875 100.6796875 C-111.83673562 100.20643863 -104.07764744 102.719276 -96.85327148 108.72216797 C-92.32587434 112.82293446 -88.10421262 117.22130767 -83.875 121.625 C-82.5821549 122.94800932 -81.28789291 124.26963559 -79.9921875 125.58984375 C-76.85324678 128.79420258 -73.73401004 132.01660404 -70.625 135.25 C-66.69032451 133.65752446 -64.04922224 130.94337631 -61.12207031 127.97412109 C-60.58503983 127.43738266 -60.04800934 126.90064423 -59.4947052 126.34764099 C-57.72606141 124.57760717 -55.96460176 122.80060143 -54.203125 121.0234375 C-52.97616534 119.79274656 -51.74876251 118.5624973 -50.52093506 117.33267212 C-47.29432512 114.09843484 -44.07376709 110.85823592 -40.85443115 107.61676025 C-37.56674328 104.30859466 -34.27336932 101.00610054 -30.98046875 97.703125 C-24.52306702 91.22428921 -18.07204432 84.73914131 -11.625 78.25 C-13.48254647 74.2100427 -16.16421281 71.50575699 -19.33203125 68.453125 C-20.48775611 67.31783649 -21.6433509 66.18241555 -22.79882812 65.046875 C-24.61304778 63.27595006 -26.42967519 61.50759178 -28.24926758 59.7421875 C-45.61715761 42.85470103 -45.61715761 42.85470103 -45.91821289 31.70361328 C-46.03321897 18.936483 -46.03321897 18.936483 -41.625 13.25 C-41.01527344 12.43015625 -40.40554688 11.6103125 -39.77734375 10.765625 C-29.51898002 -1.81995373 -15.25791253 -7.27627945 0 0 Z M-28.625 25.25 C-29.2897183 29.23830978 -29.69041046 31.7097929 -27.34998798 35.0932169 C-26.7889849 35.70380923 -26.22798182 36.31440157 -25.64997864 36.9434967 C-25.01205194 37.64007448 -24.37412525 38.33665226 -23.71686745 39.05433846 C-20.06242924 42.89010226 -16.351172 46.66255851 -12.6003418 50.40405273 C-11.72471085 51.281436 -10.8490799 52.15881927 -9.94691467 53.06278992 C-7.56897151 55.44435422 -5.18883423 57.82368035 -2.80748725 60.20183825 C-0.30853226 62.69824419 2.18796253 65.19710858 4.68486023 67.6955719 C8.8698994 71.88242334 13.05702738 76.06717711 17.24536133 80.25073242 C22.08875192 85.08866083 26.92850087 89.9302099 31.76641589 94.77361339 C35.9286219 98.94035199 40.09276654 103.10514564 44.25854939 107.26830822 C46.74335826 109.75155787 49.22748585 112.23547891 51.70986366 114.72115898 C54.46949344 117.48420452 57.23318374 120.24316578 59.99731445 123.00170898 C60.82069305 123.82711182 61.64407166 124.65251465 62.49240112 125.50292969 C63.2423082 126.25001694 63.99221527 126.99710419 64.7648468 127.76683044 C65.41760243 128.41920905 66.07035807 129.07158766 66.74289417 129.74373531 C69.61175466 132.39139649 72.25721727 132.76269787 76.14453125 132.734375 C81.78566346 131.50933053 86.32460177 125.91210118 89.375 121.25 C90.0397183 117.26169022 90.44041046 114.7902071 88.09998798 111.4067831 C87.5389849 110.79619077 86.97798182 110.18559843 86.39997864 109.5565033 C85.76205194 108.85992552 85.12412525 108.16334774 84.46686745 107.44566154 C80.81242924 103.60989774 77.101172 99.83744149 73.3503418 96.09594727 C72.47471085 95.218564 71.5990799 94.34118073 70.69691467 93.43721008 C68.31897151 91.05564578 65.93883423 88.67631965 63.55748725 86.29816175 C61.05853226 83.80175581 58.56203747 81.30289142 56.06513977 78.8044281 C51.8801006 74.61757666 47.69297262 70.43282289 43.50463867 66.24926758 C38.66124808 61.41133917 33.82149913 56.5697901 28.98358411 51.72638661 C24.8213781 47.55964801 20.65723346 43.39485436 16.49145061 39.23169178 C14.00664174 36.74844213 11.52251415 34.26452109 9.04013634 31.77884102 C6.28050656 29.01579548 3.51681626 26.25683422 0.75268555 23.49829102 C-0.07069305 22.67288818 -0.89407166 21.84748535 -1.74240112 20.99707031 C-2.4923082 20.24998306 -3.24221527 19.50289581 -4.0148468 18.73316956 C-4.66760243 18.08079095 -5.32035807 17.42841234 -5.99289417 16.75626469 C-8.86175466 14.10860351 -11.50721727 13.73730213 -15.39453125 13.765625 C-21.03566346 14.99066947 -25.57460177 20.58789882 -28.625 25.25 Z M23.375 20.25 C24.9756756 24.22526224 27.74643556 26.89020304 30.74267578 29.84472656 C31.56241379 30.66490265 31.56241379 30.66490265 32.39871216 31.50164795 C34.20121093 33.30275649 36.01068396 35.09668247 37.8203125 36.890625 C39.07342367 38.14000495 40.32609319 39.38982801 41.57833862 40.64007568 C44.87175955 43.92586872 48.17114291 47.2056107 51.47180176 50.48413086 C54.84028994 53.83214253 58.2031076 57.18583907 61.56640625 60.5390625 C68.16373176 67.11495296 74.76736983 73.68446516 81.375 80.25 C85.15720155 78.48603205 87.1625679 76.88470989 89.375 73.25 C90.09986729 69.23028139 90.48060726 66.84577133 88.12117004 63.44029236 C87.56789536 62.83600906 87.01462067 62.23172577 86.44458008 61.60913086 C85.80791412 60.91270477 85.17124817 60.21627869 84.51528931 59.49874878 C80.5935441 55.37826856 76.60112552 51.33401092 72.57421875 47.31640625 C71.65663284 46.39786362 70.73904694 45.47932098 69.7936554 44.53294373 C67.86820392 42.60603051 65.94098693 40.68090625 64.01245117 38.75708008 C61.53980285 36.29017661 59.07173681 33.81874464 56.60493755 31.345994 C54.24295286 28.97953879 51.87717911 26.61688732 49.51171875 24.25390625 C48.62530197 23.36546524 47.73888519 22.47702423 46.8256073 21.56166077 C46.00748062 20.74668625 45.18935394 19.93171173 44.34643555 19.09204102 C43.62586472 18.37226578 42.90529388 17.65249054 42.16288757 16.91090393 C39.1715168 14.13199348 36.62407563 13.80895964 32.55078125 13.81640625 C28.59463447 14.60479457 26.08235672 17.40727545 23.375 20.25 Z M75.96484375 15.5625 C75.41957031 16.119375 74.87429688 16.67625 74.3125 17.25 C73.76464844 17.806875 73.21679688 18.36375 72.65234375 18.9375 C72.23082031 19.370625 71.80929687 19.80375 71.375 20.25 C72.85221422 23.70201639 74.81294001 25.89961936 77.5 28.5 C78.22445312 29.20640625 78.94890625 29.9128125 79.6953125 30.640625 C80.24960937 31.17171875 80.80390625 31.7028125 81.375 32.25 C85.1702131 30.75902342 86.98542731 28.49299151 89.375 25.25 C87.56547409 23.41364422 85.75259362 21.58083792 83.9375 19.75 C83.42123047 19.22535156 82.90496094 18.70070313 82.37304688 18.16015625 C81.05923213 16.83775448 79.71906495 15.54164432 78.375 14.25 C77.17592531 14.13644897 77.17592531 14.13644897 75.96484375 15.5625 Z M-2.55459595 93.93075562 C-3.08974823 94.47309845 -3.62490051 95.01544128 -4.17626953 95.57421875 C-4.74226868 96.13992584 -5.30826782 96.70563293 -5.89141846 97.28848267 C-7.76832666 99.16678854 -9.63804459 101.05208833 -11.5078125 102.9375 C-12.80489277 104.23830884 -14.10241418 105.53867796 -15.40036011 106.83862305 C-18.82097861 110.26689025 -22.23554971 113.70112047 -25.64892578 117.13659668 C-29.13083053 120.63893325 -32.61837987 124.13563882 -36.10546875 127.6328125 C-42.95087125 134.49968672 -49.78990283 141.37286915 -56.625 148.25 C-55.01964713 151.66059403 -53.21981099 153.86792484 -50.5 156.5 C-49.41332031 157.55960938 -49.41332031 157.55960938 -48.3046875 158.640625 C-47.75039063 159.17171875 -47.19609375 159.7028125 -46.625 160.25 C-42.64973776 158.6493244 -39.98479696 155.87856444 -37.03027344 152.88232422 C-36.21009735 152.06258621 -36.21009735 152.06258621 -35.37335205 151.22628784 C-33.57224351 149.42378907 -31.77831753 147.61431604 -29.984375 145.8046875 C-28.73499505 144.55157633 -27.48517199 143.29890681 -26.23492432 142.04666138 C-22.94913128 138.75324045 -19.6693893 135.45385709 -16.39086914 132.15319824 C-13.04285747 128.78471006 -9.68916093 125.4218924 -6.3359375 122.05859375 C0.23995296 115.46126824 6.80946516 108.85763017 13.375 102.25 C11.78591724 98.89077747 10.0236857 96.62921007 7.375 94 C6.67375 93.29359375 5.9725 92.5871875 5.25 91.859375 C1.66219752 88.77984454 0.36702893 91.02549788 -2.55459595 93.93075562 Z M-132.625 129.25 C-133.2897183 133.23830978 -133.69041046 135.7097929 -131.34998798 139.0932169 C-130.7889849 139.70380923 -130.22798182 140.31440157 -129.64997864 140.9434967 C-129.01205194 141.64007448 -128.37412525 142.33665226 -127.71686745 143.05433846 C-124.06242924 146.89010226 -120.351172 150.66255851 -116.6003418 154.40405273 C-115.72471085 155.281436 -114.8490799 156.15881927 -113.94691467 157.06278992 C-111.56897151 159.44435422 -109.18883423 161.82368035 -106.80748725 164.20183825 C-104.30853226 166.69824419 -101.81203747 169.19710858 -99.31513977 171.6955719 C-95.1301006 175.88242334 -90.94297262 180.06717711 -86.75463867 184.25073242 C-81.91124808 189.08866083 -77.07149913 193.9302099 -72.23358411 198.77361339 C-68.0713781 202.94035199 -63.90723346 207.10514564 -59.74145061 211.26830822 C-57.25664174 213.75155787 -54.77251415 216.23547891 -52.29013634 218.72115898 C-49.53050656 221.48420452 -46.76681626 224.24316578 -44.00268555 227.00170898 C-43.17930695 227.82711182 -42.35592834 228.65251465 -41.50759888 229.50292969 C-40.7576918 230.25001694 -40.00778473 230.99710419 -39.2351532 231.76683044 C-38.58239757 232.41920905 -37.92964193 233.07158766 -37.25710583 233.74373531 C-34.38824534 236.39139649 -31.74278273 236.76269787 -27.85546875 236.734375 C-22.21433654 235.50933053 -17.67539823 229.91210118 -14.625 225.25 C-13.9602817 221.26169022 -13.55958954 218.7902071 -15.90001202 215.4067831 C-16.4610151 214.79619077 -17.02201818 214.18559843 -17.60002136 213.5565033 C-18.23794806 212.85992552 -18.87587475 212.16334774 -19.53313255 211.44566154 C-23.18757076 207.60989774 -26.898828 203.83744149 -30.6496582 200.09594727 C-31.52528915 199.218564 -32.4009201 198.34118073 -33.30308533 197.43721008 C-35.68102849 195.05564578 -38.06116577 192.67631965 -40.44251275 190.29816175 C-42.94146774 187.80175581 -45.43796253 185.30289142 -47.93486023 182.8044281 C-52.1198994 178.61757666 -56.30702738 174.43282289 -60.49536133 170.24926758 C-65.33875192 165.41133917 -70.17850087 160.5697901 -75.01641589 155.72638661 C-79.1786219 151.55964801 -83.34276654 147.39485436 -87.50854939 143.23169178 C-89.99335826 140.74844213 -92.47748585 138.26452109 -94.95986366 135.77884102 C-97.71949344 133.01579548 -100.48318374 130.25683422 -103.24731445 127.49829102 C-104.07069305 126.67288818 -104.89407166 125.84748535 -105.74240112 124.99707031 C-106.4923082 124.24998306 -107.24221527 123.50289581 -108.0148468 122.73316956 C-108.66760243 122.08079095 -109.32035807 121.42841234 -109.99289417 120.75626469 C-112.86175466 118.10860351 -115.50721727 117.73730213 -119.39453125 117.765625 C-125.03566346 118.99066947 -129.57460177 124.58789882 -132.625 129.25 Z M-128.1328125 171.5 C-130.90821676 174.50333601 -133.06511206 177.00847976 -133.4375 181.1875 C-132.48703836 189.8443148 -121.64090767 197.3803413 -115.82421875 203.18359375 C-114.90663284 204.10213638 -113.98904694 205.02067902 -113.0436554 205.96705627 C-111.11820392 207.89396949 -109.19098693 209.81909375 -107.26245117 211.74291992 C-104.78980285 214.20982339 -102.32173681 216.68125536 -99.85493755 219.154006 C-97.49295286 221.52046121 -95.12717911 223.88311268 -92.76171875 226.24609375 C-91.43209358 227.57875526 -91.43209358 227.57875526 -90.0756073 228.93833923 C-89.25748062 229.75331375 -88.43935394 230.56828827 -87.59643555 231.40795898 C-86.87586472 232.12773422 -86.15529388 232.84750946 -85.41288757 233.58909607 C-82.4215168 236.36800652 -79.87407563 236.69104036 -75.80078125 236.68359375 C-71.84463447 235.89520543 -69.33235672 233.09272455 -66.625 230.25 C-68.2258741 226.28607741 -70.97982481 223.61287411 -73.9609375 220.65527344 C-74.50421692 220.10848938 -75.04749634 219.56170532 -75.60723877 218.99835205 C-77.39983523 217.19697052 -79.19962742 215.40298232 -81 213.609375 C-82.24817711 212.35985071 -83.49605719 211.11002965 -84.74365234 209.85992432 C-87.35645977 207.24417032 -89.97284601 204.63206354 -92.59179688 202.02246094 C-95.95475239 198.67092324 -99.308619 195.31045611 -102.65988159 191.94723129 C-105.23325584 189.36664601 -107.81135478 186.79082354 -110.39093018 184.21643829 C-111.63001499 182.97869085 -112.86760703 181.7394472 -114.10369873 180.49871063 C-115.82737239 178.76998163 -117.55728523 177.04775419 -119.2890625 175.32714844 C-119.80237122 174.80979126 -120.31567993 174.29243408 -120.84454346 173.75939941 C-124.1286178 170.02914577 -124.1286178 170.02914577 -128.1328125 171.5 Z M-126.625 218.25 C-128.20340572 219.80705194 -128.20340572 219.80705194 -129.75 221.75 C-130.69875 222.905 -131.6475 224.06 -132.625 225.25 C-128.995 228.88 -125.365 232.51 -121.625 236.25 C-119.315 234.27 -117.005 232.29 -114.625 230.25 C-116.42886238 226.64227523 -117.8307949 224.77365948 -120.625 222 C-121.32625 221.29359375 -122.0275 220.5871875 -122.75 219.859375 C-124.46610768 218.03289601 -124.46610768 218.03289601 -126.625 218.25 Z " fill="#000000" transform="translate(373.625,242.75)"/>
<path d="M0 0 C7.39333999 5.32518625 12.78819128 11.64100564 15.78125 20.2890625 C16.12373779 21.26713867 16.46622559 22.24521484 16.8190918 23.25292969 C17.07086182 23.99188477 17.32263184 24.73083984 17.58203125 25.4921875 C18.47921875 25.5015332 19.37640625 25.51087891 20.30078125 25.52050781 C23.66351464 25.56480001 27.02502472 25.62653412 30.38720703 25.69970703 C31.83598341 25.72774786 33.28490797 25.74904561 34.73388672 25.76318359 C44.07292962 25.8597278 51.47710096 26.00895541 58.859375 32.4921875 C59.40722656 33.1521875 59.95507812 33.8121875 60.51953125 34.4921875 C61.08542969 35.1521875 61.65132812 35.8121875 62.234375 36.4921875 C63.61771811 38.54514887 64.05245662 40.10397074 64.58203125 42.4921875 C65.79673096 42.47124023 67.01143066 42.45029297 68.26293945 42.42871094 C72.81587707 42.3557232 77.36876412 42.31017613 81.92211914 42.27246094 C83.88412199 42.25247832 85.8460663 42.22528266 87.80786133 42.19042969 C102.99658962 41.92755529 115.03859445 42.4724605 126.58203125 53.4921875 C135.67632796 63.01868841 138.1926283 73.25075707 138.09960938 86.15209961 C138.11012329 87.97366577 138.11012329 87.97366577 138.12084961 89.83203125 C138.13532692 93.12721971 138.13209501 96.42175379 138.11933327 99.7169311 C138.10912734 103.17837069 138.11861834 106.63977006 138.12487793 110.10121155 C138.13212564 115.90357185 138.12263565 121.70572749 138.10351562 127.50805664 C138.08168018 134.21177957 138.08885761 140.91501707 138.11082125 147.61872858 C138.12897204 153.39055723 138.13153739 159.16223985 138.12106657 164.93408781 C138.114839 168.37480454 138.11397689 171.81529284 138.12721252 175.2559948 C138.14091278 179.08353482 138.12192683 182.91052935 138.09960938 186.73803711 C138.1077063 187.87521683 138.11580322 189.01239655 138.12414551 190.18403625 C138.11286621 191.22540741 138.10158691 192.26677856 138.08996582 193.33970642 C138.08770367 194.69543463 138.08770367 194.69543463 138.08539581 196.07855129 C137.42249847 199.25714816 136.06066566 200.46597747 133.58203125 202.4921875 C131.58203125 203.0234375 131.58203125 203.0234375 129.58203125 202.9921875 C128.59203125 203.00765625 128.59203125 203.00765625 127.58203125 203.0234375 C124.4382639 202.1883743 123.50481931 201.16573148 121.58203125 198.4921875 C120.96500768 194.84670403 121.03932099 191.22213684 121.06787109 187.5324707 C121.05718346 185.85615822 121.05718346 185.85615822 121.04627991 184.14598083 C121.02695354 180.44479849 121.0352893 176.74418506 121.04296875 173.04296875 C121.03306451 170.46948917 121.02112431 167.89601669 121.00723267 165.32255554 C120.97812157 159.23119845 120.96527883 153.14002658 120.96165621 147.04860705 C120.95462294 135.51345675 120.91910492 123.9784768 120.86821365 112.44344139 C120.85565207 108.660674 120.85638515 104.87807512 120.85848999 101.09529114 C120.8519059 98.76315178 120.8448989 96.43101356 120.83740234 94.09887695 C120.84152634 93.05283295 120.84565033 92.00678894 120.84989929 90.92904663 C120.79848263 81.54297995 120.16237787 73.02641555 113.1640625 66.0859375 C106.24503427 59.96731099 98.93263322 59.42600436 89.99609375 59.17578125 C88.94341812 59.1446096 88.94341812 59.1446096 87.86947632 59.11280823 C85.64875167 59.04792426 83.42791849 58.9887152 81.20703125 58.9296875 C79.69269754 58.88644396 78.17837442 58.8428279 76.6640625 58.79882812 C72.9701647 58.69230664 69.27614771 58.59087073 65.58203125 58.4921875 C65.60297852 59.14703125 65.62392578 59.801875 65.64550781 60.4765625 C65.72933508 63.48161078 65.7809002 66.48641214 65.83203125 69.4921875 C65.86554688 70.52214844 65.8990625 71.55210938 65.93359375 72.61328125 C66.03346991 80.45356002 64.83143993 85.78411477 59.6171875 91.734375 C58.96621094 92.27320312 58.31523437 92.81203125 57.64453125 93.3671875 C56.99613281 93.92148438 56.34773437 94.47578125 55.6796875 95.046875 C51.43919544 97.9686293 47.74996138 98.74303173 42.64372253 98.75961304 C40.85853966 98.77240799 40.85853966 98.77240799 39.03729248 98.78546143 C37.74003235 98.78455505 36.44277222 98.78364868 35.10620117 98.78271484 C33.71944315 98.78870248 32.33268845 98.79550857 30.94593811 98.80307007 C27.18546851 98.82071461 23.42508997 98.82542482 19.66458297 98.82670164 C17.31281514 98.82812481 14.96107034 98.83239757 12.60930824 98.83769608 C4.39797118 98.85619206 -3.813301 98.86436733 -12.0246582 98.86279297 C-19.66766234 98.86159206 -27.31038386 98.88268545 -34.95331651 98.9142803 C-41.52420207 98.94047127 -48.0949955 98.95115907 -54.66593283 98.94988215 C-58.5864342 98.94937329 -62.50668439 98.95501383 -66.42713356 98.97623825 C-70.11676938 98.99566817 -73.80591568 98.99571317 -77.49556923 98.98120499 C-79.48595183 98.97813232 -81.47633472 98.99476051 -83.46664429 99.01208496 C-91.69132848 98.95451967 -97.29974659 98.10101284 -103.66015625 92.52734375 C-104.19898437 91.87636719 -104.7378125 91.22539063 -105.29296875 90.5546875 C-105.84726563 89.90628906 -106.4015625 89.25789063 -106.97265625 88.58984375 C-109.79965002 84.48688252 -110.66857285 80.92125488 -110.61328125 75.97265625 C-110.60683594 74.95107422 -110.60039063 73.92949219 -110.59375 72.87695312 C-110.56861328 71.29430664 -110.56861328 71.29430664 -110.54296875 69.6796875 C-110.53394531 68.60525391 -110.52492188 67.53082031 -110.515625 66.42382812 C-110.49212181 63.77971896 -110.4592645 61.13606878 -110.41796875 58.4921875 C-114.81081043 58.58659119 -119.2031665 58.69286342 -123.59545898 58.80957031 C-125.08594148 58.847569 -126.57650664 58.88246946 -128.06713867 58.9140625 C-144.78585974 58.83969889 -144.78585974 58.83969889 -158.82421875 66.91015625 C-164.39556552 73.21031291 -165.54045144 79.86345475 -165.5466032 88.07795429 C-165.54982765 89.17116971 -165.5530521 90.26438513 -165.55637425 91.39072829 C-165.55482565 92.58108804 -165.55327705 93.77144778 -165.55168152 94.99787903 C-165.55394708 96.27072382 -165.55621263 97.54356861 -165.55854684 98.85498446 C-165.5646562 102.38135039 -165.56453226 105.90769259 -165.56335247 109.4340626 C-165.56314824 113.23989452 -165.5686693 117.04571886 -165.57341003 120.85154724 C-165.5817124 128.3054001 -165.58446469 135.75924505 -165.58502241 143.21310214 C-165.58549777 149.27266603 -165.58755349 155.33222732 -165.59072304 161.39179039 C-165.59952846 178.57606072 -165.60414259 195.7603248 -165.60339256 212.9445974 C-165.60333263 214.33387594 -165.60333263 214.33387594 -165.60327148 215.7512207 C-165.6032306 216.67853871 -165.60318972 217.60585671 -165.6031476 218.56127527 C-165.60274116 233.58949851 -165.61231058 248.61769669 -165.62640985 263.64591268 C-165.64077644 279.08098726 -165.64767988 294.51604962 -165.64681607 309.95113105 C-165.6464842 318.61505834 -165.64922696 327.27895936 -165.65999413 335.94288063 C-165.66910283 343.31950847 -165.67127133 350.69609812 -165.6644847 358.07272915 C-165.66122138 361.83483257 -165.66115603 365.59686276 -165.66983795 369.3589592 C-165.67916165 373.44120981 -165.67292203 377.5232911 -165.66520691 381.60554504 C-165.67035047 382.78921262 -165.67549404 383.9728802 -165.68079346 385.19241649 C-165.64030055 394.88718661 -165.25258705 403.70578919 -158 410.8984375 C-151.65998139 416.50503494 -144.97275846 417.61270094 -136.71212769 417.62348938 C-135.04242416 417.62950165 -135.04242416 417.62950165 -133.33898926 417.63563538 C-132.13254761 417.63510666 -130.92610596 417.63457794 -129.68310547 417.6340332 C-127.71542535 417.63936626 -125.74774525 417.64470528 -123.78006577 417.65026987 C-121.6733726 417.65545289 -119.56668562 417.65837571 -117.45998764 417.66085243 C-113.06452287 417.66678203 -108.66913821 417.6833385 -104.27371216 417.70219421 C-102.76692776 417.70853056 -101.26014332 417.71485619 -99.75335884 417.72117138 C-98.62194037 417.7259201 -98.62194037 417.7259201 -97.46766496 417.73076475 C-87.24066413 417.77280581 -77.01370269 417.80584351 -66.78662109 417.81811523 C-59.87853068 417.82648934 -52.97064085 417.84894899 -46.0626508 417.8874709 C-42.40947262 417.90724092 -38.75659434 417.91963281 -35.10335922 417.91463661 C-31.03330664 417.90913717 -26.96400432 417.93436103 -22.89404297 417.9621582 C-21.0783078 417.95225609 -21.0783078 417.95225609 -19.22589111 417.94215393 C-18.11839508 417.95462158 -17.01089905 417.96708923 -15.86984253 417.97993469 C-14.42694257 417.98351722 -14.42694257 417.98351722 -12.95489311 417.98717213 C-9.68415907 418.63826406 -8.48668735 419.93390385 -6.41796875 422.4921875 C-5.88671875 424.4921875 -5.88671875 424.4921875 -5.91796875 426.4921875 C-5.90765625 427.1521875 -5.89734375 427.8121875 -5.88671875 428.4921875 C-6.66425902 431.41939792 -8.0929852 432.5869226 -10.41796875 434.4921875 C-13.08148289 434.99555206 -13.08148289 434.99555206 -16.1778717 435.00012207 C-17.94186813 435.01704102 -17.94186813 435.01704102 -19.74150085 435.03430176 C-21.02829239 435.02620483 -22.31508392 435.01810791 -23.64086914 435.00976562 C-25.0127639 435.01518734 -26.38465284 435.02231028 -27.75653076 435.03100586 C-31.48226532 435.04924873 -35.20755696 435.04216484 -38.9332993 435.02948952 C-42.83993922 435.0193524 -46.74654155 435.02875849 -50.65318298 435.03503418 C-57.22125026 435.04231458 -63.78913776 435.03271902 -70.35717773 435.01367188 C-77.92912616 434.99196564 -85.50064269 434.99890707 -93.0725804 435.0209775 C-99.58576758 435.03919637 -106.0988255 435.0416564 -112.61202997 435.03122282 C-116.49628313 435.02501517 -120.38033422 435.02407508 -124.26457405 435.03736877 C-127.92470338 435.04901921 -131.58428355 435.04073641 -135.24435425 435.01779175 C-137.21147428 435.01007111 -139.17864133 435.02178632 -141.14573669 435.03430176 C-153.1853301 434.92073312 -162.62315041 431.88799707 -171.41796875 423.4921875 C-180.87983085 413.58065275 -183.0217984 403.08974751 -182.92590332 389.71533203 C-182.93052139 388.35248717 -182.93688035 386.98964731 -182.9448123 385.6268177 C-182.96140471 381.91025013 -182.95330579 378.19409701 -182.94086742 374.47752857 C-182.93177755 370.4583598 -182.94580608 366.43925986 -182.95678711 362.42010498 C-182.97453509 354.55780797 -182.97074899 346.69566406 -182.95913655 338.83336115 C-182.95008781 332.44116114 -182.94888444 326.0490039 -182.95323181 319.65679932 C-182.95384474 318.74559645 -182.95445768 317.83439358 -182.95508918 316.8955785 C-182.95636814 315.04424841 -182.95766499 313.19291833 -182.95897955 311.34158826 C-182.97037444 293.9984825 -182.95728877 276.65546145 -182.93577808 259.31236959 C-182.91790809 244.44453212 -182.92101251 229.57681959 -182.93945312 214.70898438 C-182.96087912 197.42618949 -182.96927591 180.14346877 -182.95700407 162.86066246 C-182.95572993 161.01630021 -182.95447245 159.17193795 -182.95323181 157.32757568 C-182.95261471 156.42021199 -182.95199761 155.5128483 -182.95136181 154.57798874 C-182.94791409 148.19652592 -182.95372476 141.8151103 -182.96315002 135.43365479 C-182.97439061 127.65238542 -182.97128677 119.87127737 -182.95002705 112.09002638 C-182.93954426 108.12302495 -182.93534717 104.1562921 -182.94862366 100.18929291 C-182.96061134 96.5522711 -182.95388138 92.91576483 -182.93271345 89.27878928 C-182.92618386 87.35183436 -182.93912631 85.42484317 -182.95294237 83.49792671 C-182.8462011 71.58007547 -179.72008083 62.1888554 -171.41796875 53.4921875 C-159.06235191 41.69712794 -145.84618057 41.95587803 -129.73046875 42.2421875 C-127.7571796 42.26228507 -125.78387067 42.28053007 -123.81054688 42.296875 C-119.01252601 42.3406082 -114.21546914 42.40945552 -109.41796875 42.4921875 C-108.96877075 41.32067139 -108.96877075 41.32067139 -108.51049805 40.12548828 C-107.38202849 37.40556144 -106.1396948 35.59534604 -104.23046875 33.3671875 C-103.68003906 32.70460937 -103.12960938 32.04203125 -102.5625 31.359375 C-97.57742278 27.01899811 -92.40326275 26.11428904 -85.953125 25.98046875 C-85.27495224 25.96251755 -84.59677948 25.94456635 -83.89805603 25.92607117 C-81.75892118 25.87243807 -79.62000317 25.83822706 -77.48046875 25.8046875 C-76.01885032 25.77147258 -74.55726035 25.73697913 -73.09570312 25.70117188 C-69.53666665 25.61674147 -65.97755363 25.5497078 -62.41796875 25.4921875 C-62.16619873 24.75323242 -61.91442871 24.01427734 -61.6550293 23.25292969 C-61.3125415 22.27485352 -60.97005371 21.29677734 -60.6171875 20.2890625 C-60.28291748 19.32323242 -59.94864746 18.35740234 -59.60424805 17.36230469 C-55.5763068 7.61699139 -47.01126304 0.22897106 -37.48046875 -3.9453125 C-25.20446722 -7.93371806 -10.94613541 -6.8258615 0 0 Z M-42.29296875 20.9296875 C-44.78887017 25.4452406 -45.92756075 30.47906302 -47.07568359 35.47631836 C-47.4691125 37.1617987 -47.93777823 38.82934434 -48.41796875 40.4921875 C-51.533465 42.04993563 -54.85553423 41.67017842 -58.27734375 41.703125 C-59.88412457 41.73120487 -61.49089527 41.7598694 -63.09765625 41.7890625 C-65.6298787 41.83023685 -68.16191432 41.86712431 -70.69433594 41.89355469 C-73.13906976 41.92128143 -75.58294448 41.96716305 -78.02734375 42.015625 C-78.77755798 42.01887787 -79.52777222 42.02213074 -80.30072021 42.02548218 C-85.04871211 42.1356716 -88.47550521 42.78960876 -92.41796875 45.4921875 C-95.42852843 50.69116122 -94.74793833 56.59834113 -94.73046875 62.4296875 C-94.74658203 63.50154297 -94.76269531 64.57339844 -94.77929688 65.67773438 C-94.84282941 73.55725093 -94.84282941 73.55725093 -91.41796875 80.4921875 C-87.85380978 82.26682459 -84.95369878 82.74416568 -80.99769592 82.75288391 C-79.92248184 82.75996872 -78.84726776 82.76705353 -77.73947144 82.77435303 C-76.56997955 82.77187561 -75.40048767 82.76939819 -74.19555664 82.7668457 C-72.95600723 82.77195663 -71.71645782 82.77706757 -70.43934631 82.78233337 C-67.04670504 82.79384141 -63.65430831 82.79630465 -60.26166463 82.79377007 C-57.42621068 82.79269885 -54.59077916 82.7975876 -51.75533003 82.8023755 C-45.06448999 82.81346271 -38.3737061 82.81391247 -31.68286133 82.80786133 C-24.78739282 82.80182089 -17.89212833 82.81413599 -10.99669462 82.8354314 C-5.06957198 82.8530612 0.8574858 82.8590466 6.7846337 82.85579365 C10.32161195 82.8539829 13.85844465 82.85659613 17.39539909 82.87050819 C21.34042205 82.88544538 25.28518616 82.8761043 29.23022461 82.86450195 C30.39769226 82.87214569 31.56515991 82.87978943 32.76800537 82.88766479 C40.59942796 82.84824971 40.59942796 82.84824971 47.58203125 79.4921875 C50.59259093 74.29321378 49.91200083 68.38603387 49.89453125 62.5546875 C49.91064453 61.48283203 49.92675781 60.41097656 49.94335938 59.30664062 C50.00689191 51.42712407 50.00689191 51.42712407 46.58203125 44.4921875 C42.29766397 42.1845679 38.07552844 42.19711076 33.32421875 42.18359375 C31.71353776 42.15845237 30.10286076 42.1330541 28.4921875 42.10742188 C25.96631754 42.07860124 23.44051641 42.05456539 20.91455078 42.03588867 C18.4674294 42.01428106 16.02107567 41.9748704 13.57421875 41.93359375 C12.81793182 41.93347794 12.0616449 41.93336212 11.28244019 41.9332428 C6.07735503 41.83467489 6.07735503 41.83467489 3.63085938 40.14306641 C2.05340753 37.66012195 1.72719566 35.18585792 1.20703125 32.3046875 C-0.58743404 24.10662272 -2.8965318 18.90907574 -9.85546875 13.9921875 C-21.09915417 7.8927814 -34.72321197 10.47839189 -42.29296875 20.9296875 Z " fill="#000000" transform="translate(214.41796875,21.5078125)"/>
<path d="M0 0 C1.10794922 -0.01260864 2.21589844 -0.02521729 3.35742188 -0.03820801 C4.54916016 -0.03011108 5.74089844 -0.02201416 6.96875 -0.01367188 C8.19658203 -0.01749878 9.42441406 -0.02132568 10.68945312 -0.02526855 C13.28516459 -0.02799029 15.88090336 -0.02061099 18.4765625 -0.00390625 C22.45374599 0.01749738 26.42912282 -0.0037015 30.40625 -0.02929688 C32.92708733 -0.02665365 35.44792353 -0.02152878 37.96875 -0.01367188 C39.16048828 -0.0217688 40.35222656 -0.02986572 41.58007812 -0.03820801 C43.24200195 -0.01929504 43.24200195 -0.01929504 44.9375 0 C45.91138672 0.00318237 46.88527344 0.00636475 47.88867188 0.00964355 C51.27982566 0.67725289 52.44432128 1.74092988 54.46875 4.51757812 C54.97668457 7.09765625 54.97668457 7.09765625 54.98632812 10.04882812 C54.99893677 11.15677734 55.01154541 12.26472656 55.02453613 13.40625 C55.01643921 14.59798828 55.00834229 15.78972656 55 17.01757812 C55.00574036 18.85932617 55.00574036 18.85932617 55.01159668 20.73828125 C55.01431842 23.33399272 55.00693911 25.92973149 54.99023438 28.52539062 C54.96883075 32.50257412 54.99002963 36.47795094 55.015625 40.45507812 C55.01298177 42.97591545 55.00785691 45.49675166 55 48.01757812 C55.00809692 49.20931641 55.01619385 50.40105469 55.02453613 51.62890625 C55.01192749 52.73685547 54.99931885 53.84480469 54.98632812 54.98632812 C54.98314575 55.96021484 54.97996338 56.93410156 54.97668457 57.9375 C54.30907524 61.32865378 53.24539824 62.4931494 50.46875 64.51757812 C47.88867188 65.0255127 47.88867188 65.0255127 44.9375 65.03515625 C43.82955078 65.04776489 42.72160156 65.06037354 41.58007812 65.07336426 C40.38833984 65.06526733 39.19660156 65.05717041 37.96875 65.04882812 C36.12700195 65.05456848 36.12700195 65.05456848 34.24804688 65.0604248 C31.65233541 65.06314654 29.05659664 65.05576724 26.4609375 65.0390625 C22.48375401 65.01765887 18.50837718 65.03885775 14.53125 65.06445312 C12.01041267 65.0618099 9.48957647 65.05668503 6.96875 65.04882812 C5.18114258 65.06097351 5.18114258 65.06097351 3.35742188 65.07336426 C2.24947266 65.06075562 1.14152344 65.04814697 0 65.03515625 C-0.97388672 65.03197388 -1.94777344 65.0287915 -2.95117188 65.0255127 C-6.34232566 64.35790336 -7.50682128 63.29422637 -9.53125 60.51757812 C-10.03918457 57.9375 -10.03918457 57.9375 -10.04882812 54.98632812 C-10.06143677 53.87837891 -10.07404541 52.77042969 -10.08703613 51.62890625 C-10.07893921 50.43716797 -10.07084229 49.24542969 -10.0625 48.01757812 C-10.0663269 46.78974609 -10.07015381 45.56191406 -10.07409668 44.296875 C-10.07681842 41.70116353 -10.06943911 39.10542476 -10.05273438 36.50976562 C-10.03133075 32.53258213 -10.05252963 28.55720531 -10.078125 24.58007812 C-10.07548177 22.0592408 -10.07035691 19.53840459 -10.0625 17.01757812 C-10.07059692 15.82583984 -10.07869385 14.63410156 -10.08703613 13.40625 C-10.07442749 12.29830078 -10.06181885 11.19035156 -10.04882812 10.04882812 C-10.04564575 9.07494141 -10.04246338 8.10105469 -10.03918457 7.09765625 C-8.91711969 1.39807362 -5.396739 0.01763494 0 0 Z M6.46875 16.51757812 C6.46875 27.07757813 6.46875 37.63757813 6.46875 48.51757812 C17.02875 48.51757812 27.58875 48.51757812 38.46875 48.51757812 C38.46875 37.95757812 38.46875 27.39757812 38.46875 16.51757812 C27.90875 16.51757812 17.34875 16.51757812 6.46875 16.51757812 Z " fill="#000000" transform="translate(89.53125,343.482421875)"/>
<path d="M0 0 C1.10794922 -0.01260864 2.21589844 -0.02521729 3.35742188 -0.03820801 C4.54916016 -0.03011108 5.74089844 -0.02201416 6.96875 -0.01367188 C8.19658203 -0.01749878 9.42441406 -0.02132568 10.68945312 -0.02526855 C13.28516459 -0.02799029 15.88090336 -0.02061099 18.4765625 -0.00390625 C22.45374599 0.01749738 26.42912282 -0.0037015 30.40625 -0.02929688 C32.92708733 -0.02665365 35.44792353 -0.02152878 37.96875 -0.01367188 C39.16048828 -0.0217688 40.35222656 -0.02986572 41.58007812 -0.03820801 C43.24200195 -0.01929504 43.24200195 -0.01929504 44.9375 0 C45.91138672 0.00318237 46.88527344 0.00636475 47.88867188 0.00964355 C51.27982566 0.67725289 52.44432128 1.74092988 54.46875 4.51757812 C54.97668457 7.09765625 54.97668457 7.09765625 54.98632812 10.04882812 C54.99893677 11.15677734 55.01154541 12.26472656 55.02453613 13.40625 C55.01643921 14.59798828 55.00834229 15.78972656 55 17.01757812 C55.00574036 18.85932617 55.00574036 18.85932617 55.01159668 20.73828125 C55.01431842 23.33399272 55.00693911 25.92973149 54.99023438 28.52539062 C54.96883075 32.50257412 54.99002963 36.47795094 55.015625 40.45507812 C55.01298177 42.97591545 55.00785691 45.49675166 55 48.01757812 C55.00809692 49.20931641 55.01619385 50.40105469 55.02453613 51.62890625 C55.01192749 52.73685547 54.99931885 53.84480469 54.98632812 54.98632812 C54.98314575 55.96021484 54.97996338 56.93410156 54.97668457 57.9375 C54.30907524 61.32865378 53.24539824 62.4931494 50.46875 64.51757812 C47.88867188 65.0255127 47.88867188 65.0255127 44.9375 65.03515625 C43.82955078 65.04776489 42.72160156 65.06037354 41.58007812 65.07336426 C40.38833984 65.06526733 39.19660156 65.05717041 37.96875 65.04882812 C36.12700195 65.05456848 36.12700195 65.05456848 34.24804688 65.0604248 C31.65233541 65.06314654 29.05659664 65.05576724 26.4609375 65.0390625 C22.48375401 65.01765887 18.50837718 65.03885775 14.53125 65.06445312 C12.01041267 65.0618099 9.48957647 65.05668503 6.96875 65.04882812 C5.18114258 65.06097351 5.18114258 65.06097351 3.35742188 65.07336426 C2.24947266 65.06075562 1.14152344 65.04814697 0 65.03515625 C-0.97388672 65.03197388 -1.94777344 65.0287915 -2.95117188 65.0255127 C-6.34232566 64.35790336 -7.50682128 63.29422637 -9.53125 60.51757812 C-10.03918457 57.9375 -10.03918457 57.9375 -10.04882812 54.98632812 C-10.06143677 53.87837891 -10.07404541 52.77042969 -10.08703613 51.62890625 C-10.07893921 50.43716797 -10.07084229 49.24542969 -10.0625 48.01757812 C-10.0663269 46.78974609 -10.07015381 45.56191406 -10.07409668 44.296875 C-10.07681842 41.70116353 -10.06943911 39.10542476 -10.05273438 36.50976562 C-10.03133075 32.53258213 -10.05252963 28.55720531 -10.078125 24.58007812 C-10.07548177 22.0592408 -10.07035691 19.53840459 -10.0625 17.01757812 C-10.07059692 15.82583984 -10.07869385 14.63410156 -10.08703613 13.40625 C-10.07442749 12.29830078 -10.06181885 11.19035156 -10.04882812 10.04882812 C-10.04564575 9.07494141 -10.04246338 8.10105469 -10.03918457 7.09765625 C-8.91711969 1.39807362 -5.396739 0.01763494 0 0 Z M6.46875 16.51757812 C6.46875 27.07757813 6.46875 37.63757813 6.46875 48.51757812 C17.02875 48.51757812 27.58875 48.51757812 38.46875 48.51757812 C38.46875 37.95757812 38.46875 27.39757812 38.46875 16.51757812 C27.90875 16.51757812 17.34875 16.51757812 6.46875 16.51757812 Z " fill="#000000" transform="translate(89.53125,247.482421875)"/>
<path d="M0 0 C1.10794922 -0.01260864 2.21589844 -0.02521729 3.35742188 -0.03820801 C4.54916016 -0.03011108 5.74089844 -0.02201416 6.96875 -0.01367188 C8.19658203 -0.01749878 9.42441406 -0.02132568 10.68945312 -0.02526855 C13.28516459 -0.02799029 15.88090336 -0.02061099 18.4765625 -0.00390625 C22.45374599 0.01749738 26.42912282 -0.0037015 30.40625 -0.02929688 C32.92708733 -0.02665365 35.44792353 -0.02152878 37.96875 -0.01367188 C39.16048828 -0.0217688 40.35222656 -0.02986572 41.58007812 -0.03820801 C43.24200195 -0.01929504 43.24200195 -0.01929504 44.9375 0 C45.91138672 0.00318237 46.88527344 0.00636475 47.88867188 0.00964355 C51.27982566 0.67725289 52.44432128 1.74092988 54.46875 4.51757812 C54.97668457 7.09765625 54.97668457 7.09765625 54.98632812 10.04882812 C54.99893677 11.15677734 55.01154541 12.26472656 55.02453613 13.40625 C55.01643921 14.59798828 55.00834229 15.78972656 55 17.01757812 C55.00574036 18.85932617 55.00574036 18.85932617 55.01159668 20.73828125 C55.01431842 23.33399272 55.00693911 25.92973149 54.99023438 28.52539062 C54.96883075 32.50257412 54.99002963 36.47795094 55.015625 40.45507812 C55.01298177 42.97591545 55.00785691 45.49675166 55 48.01757812 C55.00809692 49.20931641 55.01619385 50.40105469 55.02453613 51.62890625 C55.01192749 52.73685547 54.99931885 53.84480469 54.98632812 54.98632812 C54.98314575 55.96021484 54.97996338 56.93410156 54.97668457 57.9375 C54.30907524 61.32865378 53.24539824 62.4931494 50.46875 64.51757812 C47.88867188 65.0255127 47.88867188 65.0255127 44.9375 65.03515625 C43.82955078 65.04776489 42.72160156 65.06037354 41.58007812 65.07336426 C40.38833984 65.06526733 39.19660156 65.05717041 37.96875 65.04882812 C36.12700195 65.05456848 36.12700195 65.05456848 34.24804688 65.0604248 C31.65233541 65.06314654 29.05659664 65.05576724 26.4609375 65.0390625 C22.48375401 65.01765887 18.50837718 65.03885775 14.53125 65.06445312 C12.01041267 65.0618099 9.48957647 65.05668503 6.96875 65.04882812 C5.18114258 65.06097351 5.18114258 65.06097351 3.35742188 65.07336426 C2.24947266 65.06075562 1.14152344 65.04814697 0 65.03515625 C-0.97388672 65.03197388 -1.94777344 65.0287915 -2.95117188 65.0255127 C-6.34232566 64.35790336 -7.50682128 63.29422637 -9.53125 60.51757812 C-10.03918457 57.9375 -10.03918457 57.9375 -10.04882812 54.98632812 C-10.06143677 53.87837891 -10.07404541 52.77042969 -10.08703613 51.62890625 C-10.07893921 50.43716797 -10.07084229 49.24542969 -10.0625 48.01757812 C-10.0663269 46.78974609 -10.07015381 45.56191406 -10.07409668 44.296875 C-10.07681842 41.70116353 -10.06943911 39.10542476 -10.05273438 36.50976562 C-10.03133075 32.53258213 -10.05252963 28.55720531 -10.078125 24.58007812 C-10.07548177 22.0592408 -10.07035691 19.53840459 -10.0625 17.01757812 C-10.07059692 15.82583984 -10.07869385 14.63410156 -10.08703613 13.40625 C-10.07442749 12.29830078 -10.06181885 11.19035156 -10.04882812 10.04882812 C-10.04564575 9.07494141 -10.04246338 8.10105469 -10.03918457 7.09765625 C-8.91711969 1.39807362 -5.396739 0.01763494 0 0 Z M6.46875 16.51757812 C6.46875 27.07757813 6.46875 37.63757813 6.46875 48.51757812 C17.02875 48.51757812 27.58875 48.51757812 38.46875 48.51757812 C38.46875 37.95757812 38.46875 27.39757812 38.46875 16.51757812 C27.90875 16.51757812 17.34875 16.51757812 6.46875 16.51757812 Z " fill="#000000" transform="translate(89.53125,151.482421875)"/>
<path d="M0 0 C1.07672974 -0.0112793 2.15345947 -0.02255859 3.26281738 -0.03417969 C5.02716125 -0.0220343 5.02716125 -0.0220343 6.82714844 -0.00964355 C8.69107239 -0.02015747 8.69107239 -0.02015747 10.59265137 -0.03088379 C13.9978753 -0.04547416 17.40212726 -0.04205291 20.80729675 -0.02936745 C24.37154442 -0.01923659 27.9357507 -0.02863335 31.5 -0.03491211 C37.48542738 -0.04218831 43.47065729 -0.0326017 49.45605469 -0.0135498 C56.37491301 0.00821911 63.29329986 0.0011677 70.21214676 -0.02085543 C76.15368306 -0.03901038 82.09507746 -0.04156736 88.03663254 -0.03110075 C91.58476235 -0.02486625 95.13267058 -0.02402872 98.68078613 -0.0372467 C102.63600985 -0.05095221 106.59070592 -0.03195378 110.54589844 -0.00964355 C111.72212769 -0.01774048 112.89835693 -0.0258374 114.11022949 -0.03417969 C115.7253241 -0.01726074 115.7253241 -0.01726074 117.37304688 0 C118.30808044 0.0015081 119.24311401 0.0030162 120.20648193 0.00457001 C123.43531902 0.65991475 124.637185 1.9861788 126.68652344 4.50793457 C127.21777344 6.50793457 127.21777344 6.50793457 127.18652344 8.50793457 C127.20199219 9.49793457 127.20199219 9.49793457 127.21777344 10.50793457 C126.44425138 13.4200176 124.98577122 14.60089121 122.68652344 16.50793457 C120.20648193 17.01129913 120.20648193 17.01129913 117.37304688 17.01586914 C116.29631714 17.02714844 115.2195874 17.03842773 114.11022949 17.05004883 C112.34588562 17.03790344 112.34588562 17.03790344 110.54589844 17.0255127 C108.68197449 17.03602661 108.68197449 17.03602661 106.78039551 17.04675293 C103.37517158 17.0613433 99.97091962 17.05792205 96.56575012 17.04523659 C93.00150246 17.03510573 89.43729618 17.04450249 85.87304688 17.05078125 C79.8876195 17.05805745 73.90238958 17.04847084 67.91699219 17.02941895 C60.99813386 17.00765003 54.07974702 17.01470144 47.16090012 17.03672457 C41.21936382 17.05487952 35.27796941 17.0574365 29.33641434 17.04696989 C25.78828453 17.04073539 22.2403763 17.03989786 18.69226074 17.05311584 C14.73703703 17.06682135 10.78234095 17.04782292 6.82714844 17.0255127 C5.65091919 17.03360962 4.47468994 17.04170654 3.26281738 17.05004883 C1.64772278 17.03312988 1.64772278 17.03312988 0 17.01586914 C-0.93503357 17.01436104 -1.87006714 17.01285294 -2.83343506 17.01129913 C-6.06227215 16.35595439 -7.26413812 15.02969034 -9.31347656 12.50793457 C-9.84472656 10.50793457 -9.84472656 10.50793457 -9.81347656 8.50793457 C-9.82894531 7.51793457 -9.82894531 7.51793457 -9.84472656 6.50793457 C-8.49154751 1.41361344 -4.87144101 0.00785708 0 0 Z " fill="#000000" transform="translate(177.3134765625,247.4920654296875)"/>
<path d="M0 0 C1.07672974 -0.0112793 2.15345947 -0.02255859 3.26281738 -0.03417969 C5.02716125 -0.0220343 5.02716125 -0.0220343 6.82714844 -0.00964355 C8.69107239 -0.02015747 8.69107239 -0.02015747 10.59265137 -0.03088379 C13.9978753 -0.04547416 17.40212726 -0.04205291 20.80729675 -0.02936745 C24.37154442 -0.01923659 27.9357507 -0.02863335 31.5 -0.03491211 C37.48542738 -0.04218831 43.47065729 -0.0326017 49.45605469 -0.0135498 C56.37491301 0.00821911 63.29329986 0.0011677 70.21214676 -0.02085543 C76.15368306 -0.03901038 82.09507746 -0.04156736 88.03663254 -0.03110075 C91.58476235 -0.02486625 95.13267058 -0.02402872 98.68078613 -0.0372467 C102.63600985 -0.05095221 106.59070592 -0.03195378 110.54589844 -0.00964355 C111.72212769 -0.01774048 112.89835693 -0.0258374 114.11022949 -0.03417969 C115.7253241 -0.01726074 115.7253241 -0.01726074 117.37304688 0 C118.30808044 0.0015081 119.24311401 0.0030162 120.20648193 0.00457001 C123.43531902 0.65991475 124.637185 1.9861788 126.68652344 4.50793457 C127.21777344 6.50793457 127.21777344 6.50793457 127.18652344 8.50793457 C127.20199219 9.49793457 127.20199219 9.49793457 127.21777344 10.50793457 C126.44425138 13.4200176 124.98577122 14.60089121 122.68652344 16.50793457 C120.20648193 17.01129913 120.20648193 17.01129913 117.37304688 17.01586914 C116.29631714 17.02714844 115.2195874 17.03842773 114.11022949 17.05004883 C112.34588562 17.03790344 112.34588562 17.03790344 110.54589844 17.0255127 C108.68197449 17.03602661 108.68197449 17.03602661 106.78039551 17.04675293 C103.37517158 17.0613433 99.97091962 17.05792205 96.56575012 17.04523659 C93.00150246 17.03510573 89.43729618 17.04450249 85.87304688 17.05078125 C79.8876195 17.05805745 73.90238958 17.04847084 67.91699219 17.02941895 C60.99813386 17.00765003 54.07974702 17.01470144 47.16090012 17.03672457 C41.21936382 17.05487952 35.27796941 17.0574365 29.33641434 17.04696989 C25.78828453 17.04073539 22.2403763 17.03989786 18.69226074 17.05311584 C14.73703703 17.06682135 10.78234095 17.04782292 6.82714844 17.0255127 C5.65091919 17.03360962 4.47468994 17.04170654 3.26281738 17.05004883 C1.64772278 17.03312988 1.64772278 17.03312988 0 17.01586914 C-0.93503357 17.01436104 -1.87006714 17.01285294 -2.83343506 17.01129913 C-6.06227215 16.35595439 -7.26413812 15.02969034 -9.31347656 12.50793457 C-9.84472656 10.50793457 -9.84472656 10.50793457 -9.81347656 8.50793457 C-9.82894531 7.51793457 -9.82894531 7.51793457 -9.84472656 6.50793457 C-8.49154751 1.41361344 -4.87144101 0.00785708 0 0 Z " fill="#000000" transform="translate(177.3134765625,151.4920654296875)"/>
<path d="M0 0 C0.77444458 -0.00700928 1.54888916 -0.01401855 2.34680176 -0.02124023 C4.90344232 -0.03882686 7.45897344 -0.02719576 10.015625 -0.01367188 C11.79394747 -0.01636661 13.57226851 -0.02024888 15.35058594 -0.02526855 C19.07631468 -0.03116448 22.80165964 -0.02259774 26.52734375 -0.00390625 C31.30261787 0.01888354 36.07699276 0.00576094 40.85223389 -0.01819611 C44.52399468 -0.03265162 48.19554235 -0.02804927 51.86730957 -0.01768494 C53.62797146 -0.01501696 55.38865271 -0.01828992 57.14929199 -0.02760315 C59.61046587 -0.03776495 62.0701845 -0.0222744 64.53125 0 C65.2586438 -0.00809692 65.9860376 -0.01619385 66.73547363 -0.02453613 C70.17906688 0.03319039 71.96216633 0.28135145 74.71582031 2.42492676 C76.39732531 4.69540881 76.80921353 5.72791231 76.765625 8.51757812 C76.78109375 9.50757813 76.78109375 9.50757813 76.796875 10.51757812 C75.99974611 13.51853394 74.71165797 14.61346966 72.265625 16.51757812 C69.55182754 16.91240719 67.2431129 17.06534313 64.53125 17.03515625 C63.36958313 17.04567017 63.36958313 17.04567017 62.18444824 17.05639648 C59.62780768 17.07398311 57.07227656 17.06235201 54.515625 17.04882812 C52.73730253 17.05152286 50.95898149 17.05540513 49.18066406 17.0604248 C45.45493532 17.06632073 41.72959036 17.05775399 38.00390625 17.0390625 C33.22863213 17.01627271 28.45425724 17.02939531 23.67901611 17.05335236 C20.00725532 17.06780787 16.33570765 17.06320552 12.66394043 17.05284119 C10.90327854 17.05017321 9.14259729 17.05344617 7.38195801 17.0627594 C4.92078413 17.0729212 2.4610655 17.05743065 0 17.03515625 C-0.7273938 17.04325317 -1.4547876 17.0513501 -2.20422363 17.05969238 C-5.64781688 17.00196586 -7.43091633 16.7538048 -10.18457031 14.61022949 C-11.86607531 12.33974744 -12.27796353 11.30724394 -12.234375 8.51757812 C-12.24984375 7.52757812 -12.24984375 7.52757812 -12.265625 6.51757812 C-10.59962649 0.24558375 -5.60949142 -0.06244159 0 0 Z " fill="#000000" transform="translate(179.734375,295.482421875)"/>
<path d="M0 0 C0.77444458 -0.00700928 1.54888916 -0.01401855 2.34680176 -0.02124023 C4.90344232 -0.03882686 7.45897344 -0.02719576 10.015625 -0.01367188 C11.79394747 -0.01636661 13.57226851 -0.02024888 15.35058594 -0.02526855 C19.07631468 -0.03116448 22.80165964 -0.02259774 26.52734375 -0.00390625 C31.30261787 0.01888354 36.07699276 0.00576094 40.85223389 -0.01819611 C44.52399468 -0.03265162 48.19554235 -0.02804927 51.86730957 -0.01768494 C53.62797146 -0.01501696 55.38865271 -0.01828992 57.14929199 -0.02760315 C59.61046587 -0.03776495 62.0701845 -0.0222744 64.53125 0 C65.2586438 -0.00809692 65.9860376 -0.01619385 66.73547363 -0.02453613 C70.17906688 0.03319039 71.96216633 0.28135145 74.71582031 2.42492676 C76.39732531 4.69540881 76.80921353 5.72791231 76.765625 8.51757812 C76.78109375 9.50757813 76.78109375 9.50757813 76.796875 10.51757812 C75.99974611 13.51853394 74.71165797 14.61346966 72.265625 16.51757812 C69.55182754 16.91240719 67.2431129 17.06534313 64.53125 17.03515625 C63.36958313 17.04567017 63.36958313 17.04567017 62.18444824 17.05639648 C59.62780768 17.07398311 57.07227656 17.06235201 54.515625 17.04882812 C52.73730253 17.05152286 50.95898149 17.05540513 49.18066406 17.0604248 C45.45493532 17.06632073 41.72959036 17.05775399 38.00390625 17.0390625 C33.22863213 17.01627271 28.45425724 17.02939531 23.67901611 17.05335236 C20.00725532 17.06780787 16.33570765 17.06320552 12.66394043 17.05284119 C10.90327854 17.05017321 9.14259729 17.05344617 7.38195801 17.0627594 C4.92078413 17.0729212 2.4610655 17.05743065 0 17.03515625 C-0.7273938 17.04325317 -1.4547876 17.0513501 -2.20422363 17.05969238 C-5.64781688 17.00196586 -7.43091633 16.7538048 -10.18457031 14.61022949 C-11.86607531 12.33974744 -12.27796353 11.30724394 -12.234375 8.51757812 C-12.24984375 7.52757812 -12.24984375 7.52757812 -12.265625 6.51757812 C-10.59962649 0.24558375 -5.60949142 -0.06244159 0 0 Z " fill="#000000" transform="translate(179.734375,199.482421875)"/>
<path d="M0 0 C1.04269043 -0.00574036 1.04269043 -0.00574036 2.10644531 -0.01159668 C3.57228041 -0.0143118 5.03816428 -0.00697835 6.50390625 0.00976562 C8.74328975 0.03118581 10.97946587 0.00995557 13.21875 -0.015625 C14.64584039 -0.01298165 16.07292879 -0.0078565 17.5 0 C19.44132812 0.00676758 19.44132812 0.00676758 21.421875 0.01367188 C25.25919979 0.61043894 26.44070951 1.47408051 28.75 4.53125 C29.28125 6.53125 29.28125 6.53125 29.25 8.53125 C29.2603125 9.19125 29.270625 9.85125 29.28125 10.53125 C28.48927074 13.51281897 27.16446325 14.62735121 24.75 16.53125 C21.421875 17.04882812 21.421875 17.04882812 17.5 17.0625 C16.80487305 17.0663269 16.10974609 17.07015381 15.39355469 17.07409668 C13.92771959 17.0768118 12.46183572 17.06947835 10.99609375 17.05273438 C8.75671025 17.03131419 6.52053413 17.05254443 4.28125 17.078125 C2.85415961 17.07548165 1.42707121 17.0703565 0 17.0625 C-1.29421875 17.05798828 -2.5884375 17.05347656 -3.921875 17.04882812 C-7.75919979 16.45206106 -8.94070951 15.58841949 -11.25 12.53125 C-11.78125 10.53125 -11.78125 10.53125 -11.75 8.53125 C-11.76546875 7.54125 -11.76546875 7.54125 -11.78125 6.53125 C-10.16044839 0.42940865 -5.57509951 0.01943511 0 0 Z " fill="#000000" transform="translate(179.25,391.46875)"/>
<path d="M0 0 C1.04269043 -0.00574036 1.04269043 -0.00574036 2.10644531 -0.01159668 C3.57228041 -0.0143118 5.03816428 -0.00697835 6.50390625 0.00976562 C8.74328975 0.03118581 10.97946587 0.00995557 13.21875 -0.015625 C14.64584039 -0.01298165 16.07292879 -0.0078565 17.5 0 C19.44132812 0.00676758 19.44132812 0.00676758 21.421875 0.01367188 C25.25919979 0.61043894 26.44070951 1.47408051 28.75 4.53125 C29.28125 6.53125 29.28125 6.53125 29.25 8.53125 C29.2603125 9.19125 29.270625 9.85125 29.28125 10.53125 C28.48927074 13.51281897 27.16446325 14.62735121 24.75 16.53125 C21.421875 17.04882812 21.421875 17.04882812 17.5 17.0625 C16.80487305 17.0663269 16.10974609 17.07015381 15.39355469 17.07409668 C13.92771959 17.0768118 12.46183572 17.06947835 10.99609375 17.05273438 C8.75671025 17.03131419 6.52053413 17.05254443 4.28125 17.078125 C2.85415961 17.07548165 1.42707121 17.0703565 0 17.0625 C-1.29421875 17.05798828 -2.5884375 17.05347656 -3.921875 17.04882812 C-7.75919979 16.45206106 -8.94070951 15.58841949 -11.25 12.53125 C-11.78125 10.53125 -11.78125 10.53125 -11.75 8.53125 C-11.76546875 7.54125 -11.76546875 7.54125 -11.78125 6.53125 C-10.16044839 0.42940865 -5.57509951 0.01943511 0 0 Z " fill="#000000" transform="translate(179.25,343.46875)"/>
</svg>
