<?xml version="1.0" encoding="UTF-8"?>
<svg version="1.1" xmlns="http://www.w3.org/2000/svg" width="64" height="64">
<path d="M0 0 C0.79792969 0.00386719 1.59585938 0.00773437 2.41796875 0.01171875 C3.61486328 0.00591797 3.61486328 0.00591797 4.8359375 0 C10.79136108 0.01011108 10.79136108 0.01011108 11.91796875 1.13671875 C12.0178385 3.98006923 12.05674756 6.79369038 12.04296875 9.63671875 C12.04876953 10.83361328 12.04876953 10.83361328 12.0546875 12.0546875 C12.04457642 18.01011108 12.04457642 18.01011108 10.91796875 19.13671875 C6.9695997 19.39994335 4.31417606 19.22669248 0.91796875 17.13671875 C-0.40203125 18.45671875 -1.72203125 19.77671875 -3.08203125 21.13671875 C-2.75203125 21.67296875 -2.42203125 22.20921875 -2.08203125 22.76171875 C-0.84506402 25.69951592 -0.87146784 27.97826758 -1.08203125 31.13671875 C-2.96755655 33.02224405 -5.65971956 32.26918564 -8.1640625 32.2734375 C-8.96199219 32.26957031 -9.75992188 32.26570313 -10.58203125 32.26171875 C-11.37996094 32.26558594 -12.17789063 32.26945312 -13 32.2734375 C-18.95542358 32.26332642 -18.95542358 32.26332642 -20.08203125 31.13671875 C-20.181901 28.29336827 -20.22081006 25.47974712 -20.20703125 22.63671875 C-20.21089844 21.83878906 -20.21476562 21.04085937 -20.21875 20.21875 C-20.20863892 14.26332642 -20.20863892 14.26332642 -19.08203125 13.13671875 C-15.1336622 12.87349415 -12.47823856 13.04674502 -9.08203125 15.13671875 C-7.76203125 13.81671875 -6.44203125 12.49671875 -5.08203125 11.13671875 C-5.57703125 10.33234375 -5.57703125 10.33234375 -6.08203125 9.51171875 C-7.31899848 6.57392158 -7.29259466 4.29516992 -7.08203125 1.13671875 C-5.19650595 -0.74880655 -2.50434294 0.00425186 0 0 Z M-4.08203125 3.13671875 C-2.5498444 6.76733542 -0.36371685 9.12309605 2.41796875 11.88671875 C3.21203125 12.6859375 4.00609375 13.48515625 4.82421875 14.30859375 C6.70580337 16.35595484 6.70580337 16.35595484 8.91796875 16.13671875 C7.3857819 12.50610208 5.19965435 10.15034145 2.41796875 7.38671875 C1.62390625 6.5875 0.82984375 5.78828125 0.01171875 4.96484375 C-1.86986587 2.91748266 -1.86986587 2.91748266 -4.08203125 3.13671875 Z M-17.08203125 16.13671875 C-15.5498444 19.76733542 -13.36371685 22.12309605 -10.58203125 24.88671875 C-9.78796875 25.6859375 -8.99390625 26.48515625 -8.17578125 27.30859375 C-6.29419663 29.35595484 -6.29419663 29.35595484 -4.08203125 29.13671875 C-5.6142181 25.50610208 -7.80034565 23.15034145 -10.58203125 20.38671875 C-11.37609375 19.5875 -12.17015625 18.78828125 -12.98828125 17.96484375 C-14.86986587 15.91748266 -14.86986587 15.91748266 -17.08203125 16.13671875 Z " fill="#000000" transform="translate(48.08203125,29.86328125)"/>
<path d="M0 0 C1.98 0 3.96 0 6 0 C6.66 1.32 7.32 2.64 8 4 C9.98 4 11.96 4 14 4 C14 4.66 14 5.32 14 6 C15.11375 5.95875 16.2275 5.9175 17.375 5.875 C21 6 21 6 23 8 C23.22705078 9.87939453 23.22705078 9.87939453 23.1953125 12.1328125 C23.18886719 12.93847656 23.18242188 13.74414062 23.17578125 14.57421875 C23.15902344 15.41597656 23.14226563 16.25773437 23.125 17.125 C23.11597656 17.97449219 23.10695312 18.82398437 23.09765625 19.69921875 C23.07405647 21.79959884 23.03818483 23.89983444 23 26 C22.34 26 21.68 26 21 26 C20.67 20.39 20.34 14.78 20 9 C18.02 8.67 16.04 8.34 14 8 C14 9.65 14 11.3 14 13 C6.74 13 -0.52 13 -8 13 C-8 11.35 -8 9.7 -8 8 C-9.98 8.33 -11.96 8.66 -14 9 C-14 23.19 -14 37.38 -14 52 C-7.73 52.33 -1.46 52.66 5 53 C5 53.66 5 54.32 5 55 C1.70840684 55.05790353 -1.58305603 55.09356261 -4.875 55.125 C-5.81214844 55.14175781 -6.74929688 55.15851562 -7.71484375 55.17578125 C-8.61074219 55.18222656 -9.50664062 55.18867187 -10.4296875 55.1953125 C-11.25710449 55.20578613 -12.08452148 55.21625977 -12.93701172 55.22705078 C-15 55 -15 55 -17 53 C-17.25396729 51.0645752 -17.25396729 51.0645752 -17.25878906 48.67382812 C-17.26509338 47.77950073 -17.27139771 46.88517334 -17.27789307 45.96374512 C-17.2738446 44.99602173 -17.26979614 44.02829834 -17.265625 43.03125 C-17.26753845 42.04000122 -17.2694519 41.04875244 -17.27142334 40.02746582 C-17.27278585 37.92927802 -17.26908482 35.83108181 -17.26074219 33.73291016 C-17.25004371 30.51315454 -17.26063536 27.29395692 -17.2734375 24.07421875 C-17.27211592 22.03906126 -17.26955355 20.00390412 -17.265625 17.96875 C-17.27169769 16.51716492 -17.27169769 16.51716492 -17.27789307 15.03625488 C-17.27158875 14.14192749 -17.26528442 13.2476001 -17.25878906 12.32617188 C-17.25719788 11.53722534 -17.25560669 10.74827881 -17.25396729 9.9354248 C-17 8 -17 8 -15 6 C-11.375 5.875 -11.375 5.875 -8 6 C-8 5.34 -8 4.68 -8 4 C-6.02 4 -4.04 4 -2 4 C-1.34 2.68 -0.68 1.36 0 0 Z M1 3 C0.67 3.66 0.34 4.32 0 5 C-1.97888961 5.72693904 -3.97954558 6.39816251 -6 7 C-5.67 8.32 -5.34 9.64 -5 11 C0.28 11 5.56 11 11 11 C11.33 9.68 11.66 8.36 12 7 C11.030625 6.71125 10.06125 6.4225 9.0625 6.125 C6 5 6 5 5 3 C3.68 3 2.36 3 1 3 Z " fill="#000000" transform="translate(21,2)"/>
<path d="M0 0 C2.64 0 5.28 0 8 0 C8 2.64 8 5.28 8 8 C5.36 8 2.72 8 0 8 C0 5.36 0 2.72 0 0 Z M2 2 C2 3.32 2 4.64 2 6 C3.32 6 4.64 6 6 6 C6 4.68 6 3.36 6 2 C4.68 2 3.36 2 2 2 Z " fill="#000000" transform="translate(10,43)"/>
<path d="M0 0 C2.64 0 5.28 0 8 0 C8 2.64 8 5.28 8 8 C5.36 8 2.72 8 0 8 C0 5.36 0 2.72 0 0 Z M2 2 C2 3.32 2 4.64 2 6 C3.32 6 4.64 6 6 6 C6 4.68 6 3.36 6 2 C4.68 2 3.36 2 2 2 Z " fill="#000000" transform="translate(10,31)"/>
<path d="M0 0 C2.64 0 5.28 0 8 0 C8 2.64 8 5.28 8 8 C5.36 8 2.72 8 0 8 C0 5.36 0 2.72 0 0 Z M2 2 C2 3.32 2 4.64 2 6 C3.32 6 4.64 6 6 6 C6 4.68 6 3.36 6 2 C4.68 2 3.36 2 2 2 Z " fill="#000000" transform="translate(10,19)"/>
<path d="M0 0 C5.61 0 11.22 0 17 0 C17 0.66 17 1.32 17 2 C11.39 2 5.78 2 0 2 C0 1.34 0 0.68 0 0 Z " fill="#000000" transform="translate(21,31)"/>
<path d="M0 0 C5.61 0 11.22 0 17 0 C17 0.66 17 1.32 17 2 C11.39 2 5.78 2 0 2 C0 1.34 0 0.68 0 0 Z " fill="#000000" transform="translate(21,19)"/>
<path d="M0 0 C3.63 0 7.26 0 11 0 C11 0.66 11 1.32 11 2 C7.37 2 3.74 2 0 2 C0 1.34 0 0.68 0 0 Z " fill="#000000" transform="translate(21,37)"/>
<path d="M0 0 C3.63 0 7.26 0 11 0 C11 0.66 11 1.32 11 2 C7.37 2 3.74 2 0 2 C0 1.34 0 0.68 0 0 Z " fill="#000000" transform="translate(21,25)"/>
<path d="M0 0 C1.65 0 3.3 0 5 0 C5 0.66 5 1.32 5 2 C3.35 2 1.7 2 0 2 C0 1.34 0 0.68 0 0 Z " fill="#000000" transform="translate(21,49)"/>
<path d="M0 0 C1.65 0 3.3 0 5 0 C5 0.66 5 1.32 5 2 C3.35 2 1.7 2 0 2 C0 1.34 0 0.68 0 0 Z " fill="#000000" transform="translate(21,43)"/>
</svg>
