<?xml version="1.0" encoding="UTF-8"?>
<svg version="1.1" xmlns="http://www.w3.org/2000/svg" width="64" height="64">
<path d="M0 0 C2.95887459 -0.08069658 5.9155659 -0.14034665 8.875 -0.1875 C9.71675781 -0.21263672 10.55851562 -0.23777344 11.42578125 -0.26367188 C12.23144531 -0.27333984 13.03710938 -0.28300781 13.8671875 -0.29296875 C14.98262939 -0.31653442 14.98262939 -0.31653442 16.12060547 -0.34057617 C17.05090576 -0.17199097 17.05090576 -0.17199097 18 0 C19.99097846 2.98646769 20.94124926 5.59687262 22 9 C22.59167969 8.86980469 23.18335938 8.73960938 23.79296875 8.60546875 C26.2595905 8.1749165 28.49550054 7.91145709 31 8 C35.33762412 11.08453271 37.75377301 15.25796523 40 20 C40.5 23.1875 40.5 23.1875 40 26 C38.66666667 27.33333333 37.33333333 28.66666667 36 30 C35.91975342 32.59889783 35.91975342 32.59889783 37 35 C37.515625 35.474375 38.03125 35.94875 38.5625 36.4375 C40 38 40 38 40.5625 40.5625 C39.72174572 45.7004428 37.31761191 49.99871535 34 54 C29.68680078 56.30674262 26.75655352 55.93265755 22 55 C20.68 57.97 19.36 60.94 18 64 C15.04112541 64.08069658 12.0844341 64.14034665 9.125 64.1875 C8.28324219 64.21263672 7.44148438 64.23777344 6.57421875 64.26367188 C5.76855469 64.27333984 4.96289062 64.28300781 4.1328125 64.29296875 C3.38918457 64.3086792 2.64555664 64.32438965 1.87939453 64.34057617 C1.25919434 64.22818604 0.63899414 64.1157959 0 64 C-1.99097846 61.01353231 -2.94124926 58.40312738 -4 55 C-5.216875 55.226875 -6.43375 55.45375 -7.6875 55.6875 C-10.56873573 56.22467954 -11.82764836 56.07510737 -14.5546875 54.88671875 C-17.52387854 52.59579339 -18.76492382 50.47015235 -20.4375 47.125 C-20.97246094 46.09632812 -21.50742187 45.06765625 -22.05859375 44.0078125 C-23 41 -23 41 -22.34765625 38.2421875 C-21 36 -21 36 -18 34 C-18.51152368 30.21472479 -19.20845842 28.55891312 -22 26 C-23 23 -23 23 -21.92578125 20.1875 C-21.39339844 19.135625 -20.86101563 18.08375 -20.3125 17 C-19.79300781 15.948125 -19.27351563 14.89625 -18.73828125 13.8125 C-17.00858135 11.01388443 -15.89279204 9.53020588 -13 8 C-9.8814455 7.90189978 -7.10221257 8.4981715 -4 9 C-2.68 6.03 -1.36 3.06 0 0 Z M4 5 C3.3503125 6.918125 3.3503125 6.918125 2.6875 8.875 C1.52206739 12.31580104 1.20148213 12.86567858 -2 15 C-4.48046875 15.1953125 -4.48046875 15.1953125 -7.1875 15.125 C-8.08855469 15.10695313 -8.98960938 15.08890625 -9.91796875 15.0703125 C-10.60503906 15.04710937 -11.29210937 15.02390625 -12 15 C-13.32 17.64 -14.64 20.28 -16 23 C-15.34 23.66 -14.68 24.32 -14 25 C-11.88589763 28.17115355 -11.42064388 30.19497182 -11.59375 33.99609375 C-12.26746636 37.31932927 -13.89821363 39.37276703 -16 42 C-14.68 44.31 -13.36 46.62 -12 49 C-10.98679687 48.94779297 -10.98679687 48.94779297 -9.953125 48.89453125 C-9.06109375 48.86746094 -8.1690625 48.84039062 -7.25 48.8125 C-5.92742188 48.76029297 -5.92742188 48.76029297 -4.578125 48.70703125 C-1.47706678 49.05942423 -0.21293172 49.82658492 2 52 C3.25 55.6875 3.25 55.6875 4 59 C7.3 59 10.6 59 14 59 C14.433125 57.72125 14.86625 56.4425 15.3125 55.125 C16.47793261 51.68419896 16.79851787 51.13432142 20 49 C22.48046875 48.8046875 22.48046875 48.8046875 25.1875 48.875 C26.08855469 48.89304688 26.98960938 48.91109375 27.91796875 48.9296875 C28.60503906 48.95289063 29.29210938 48.97609375 30 49 C31.32 46.36 32.64 43.72 34 41 C33.34 40.34 32.68 39.68 32 39 C29.88589763 35.82884645 29.42064388 33.80502818 29.59375 30.00390625 C30.26746636 26.68067073 31.89821363 24.62723297 34 22 C32.02 18.535 32.02 18.535 30 15 C29.32453125 15.03480469 28.6490625 15.06960938 27.953125 15.10546875 C27.06109375 15.13253906 26.1690625 15.15960938 25.25 15.1875 C24.36828125 15.22230469 23.4865625 15.25710938 22.578125 15.29296875 C19.47706678 14.94057577 18.21293172 14.17341508 16 12 C14.75 8.3125 14.75 8.3125 14 5 C10.7 5 7.4 5 4 5 Z " fill="#000000" transform="translate(23,0)"/>
<path d="M0 0 C2.80950429 3.06491377 4.03225918 5.17472349 4.09375 9.39453125 C3.75804137 14.45533892 2.93541295 17.6998298 -0.9375 21.25 C-4.82349145 23.6926232 -8.38811121 23.41825696 -12.78515625 22.7890625 C-16.91161564 21.75557539 -19.10062192 19.58139695 -21.3125 16.0625 C-22.49633401 10.73524694 -21.98707643 6.01178901 -19.1875 1.3125 C-13.49894956 -3.90200457 -6.52431712 -3.88682722 0 0 Z M-13.75 5.375 C-16.24089948 8.06259963 -16.24089948 8.06259963 -16 11.375 C-15.12456667 14.26645649 -15.12456667 14.26645649 -13.25 16.1875 C-10.03806066 17.66325591 -8.27275198 17.31444212 -4.9375 16.25 C-2.8589392 14.67304368 -2.8589392 14.67304368 -1.9375 12.25 C-2.00972995 8.71073241 -2.26555009 6.9451206 -4.75 4.375 C-8.54005582 2.42582844 -10.42654611 2.86394595 -13.75 5.375 Z " fill="#000000" transform="translate(40.9375,21.75)"/>
</svg>
