<?xml version="1.0" encoding="UTF-8"?>
<svg version="1.1" xmlns="http://www.w3.org/2000/svg" width="64" height="64">
<path d="M0 0 C1.2065625 0.0309375 1.2065625 0.0309375 2.4375 0.0625 C3.77856405 2.7446281 3.65200419 4.94648032 3.75390625 7.9453125 C3.79580078 9.11191406 3.83769531 10.27851563 3.88085938 11.48046875 C3.92017578 12.70378906 3.95949219 13.92710938 4 15.1875 C4.04318359 16.41855469 4.08636719 17.64960938 4.13085938 18.91796875 C4.23718704 21.96602853 4.33921781 25.0141719 4.4375 28.0625 C5.18773437 27.40121094 5.93796875 26.73992188 6.7109375 26.05859375 C9.4375 24.0625 9.4375 24.0625 13.0625 24.125 C17.66477273 25.40340909 17.66477273 25.40340909 19.4375 28.0625 C20.57092113 30.67808722 20.49509995 31.84780927 19.75 34.625 C18.22915504 37.44942635 17.33098602 38.65485815 14.4375 40.0625 C8.30309978 39.84725789 8.30309978 39.84725789 5.72265625 37.5078125 C5.08650391 36.79238281 5.08650391 36.79238281 4.4375 36.0625 C4.41768066 36.80935059 4.39786133 37.55620117 4.37744141 38.32568359 C4.28241789 41.69665605 4.17264741 45.06698929 4.0625 48.4375 C4.01609375 50.2009375 4.01609375 50.2009375 3.96875 52 C3.93007813 53.12148438 3.89140625 54.24296875 3.8515625 55.3984375 C3.8201416 56.43532715 3.7887207 57.4722168 3.75634766 58.54052734 C3.4375 61.0625 3.4375 61.0625 1.4375 63.0625 C-0.2125 62.7325 -1.8625 62.4025 -3.5625 62.0625 C-3.8925 54.4725 -4.2225 46.8825 -4.5625 39.0625 C-8.0275 39.5575 -8.0275 39.5575 -11.5625 40.0625 C-11.3452124 40.64741211 -11.1279248 41.23232422 -10.90405273 41.83496094 C-9.92481116 44.49015642 -8.96227854 47.1511125 -8 49.8125 C-7.65775391 50.73289063 -7.31550781 51.65328125 -6.96289062 52.6015625 C-6.64384766 53.49101563 -6.32480469 54.38046875 -5.99609375 55.296875 C-5.69759521 56.11381836 -5.39909668 56.93076172 -5.09155273 57.77246094 C-4.51327061 60.27559263 -4.73073042 61.66121738 -5.5625 64.0625 C-7.5425 64.0625 -9.5225 64.0625 -11.5625 64.0625 C-11.89048584 63.43158447 -12.21847168 62.80066895 -12.55639648 62.15063477 C-14.03566397 59.30774542 -15.51779223 56.46635739 -17 53.625 C-17.51626953 52.63177734 -18.03253906 51.63855469 -18.56445312 50.61523438 C-19.05751953 49.67099609 -19.55058594 48.72675781 -20.05859375 47.75390625 C-20.74199829 46.44208374 -20.74199829 46.44208374 -21.43920898 45.10375977 C-22.40155217 43.13058311 -22.40155217 43.13058311 -23.5625 42.0625 C-23.9248877 42.72894531 -24.28727539 43.39539062 -24.66064453 44.08203125 C-26.31292746 47.08904949 -27.99946722 50.0754159 -29.6875 53.0625 C-30.25726563 54.11179688 -30.82703125 55.16109375 -31.4140625 56.2421875 C-31.98125 57.23476563 -32.5484375 58.22734375 -33.1328125 59.25 C-33.64602051 60.17167969 -34.15922852 61.09335937 -34.68798828 62.04296875 C-36.5625 64.0625 -36.5625 64.0625 -39.77685547 64.36328125 C-40.69611816 64.26402344 -41.61538086 64.16476563 -42.5625 64.0625 C-43.75888392 60.63075435 -43.39538184 58.87513144 -41.97265625 55.5703125 C-41.60462891 54.70647949 -41.23660156 53.84264648 -40.85742188 52.95263672 C-40.45072266 52.0401416 -40.04402344 51.12764648 -39.625 50.1875 C-39.21185547 49.25309082 -38.79871094 48.31868164 -38.37304688 47.35595703 C-37.12649395 44.5798474 -35.85258768 41.81861953 -34.5625 39.0625 C-34.20913574 38.30259766 -33.85577148 37.54269531 -33.49169922 36.75976562 C-27.82640563 24.87904204 -27.82640563 24.87904204 -22.375 22.625 C-16.52545992 21.43456728 -10.42761508 22.31009729 -4.5625 23.0625 C-4.52491577 22.07068726 -4.52491577 22.07068726 -4.48657227 21.05883789 C-4.37096898 18.08067695 -4.24808246 15.1028608 -4.125 12.125 C-4.08568359 11.08408203 -4.04636719 10.04316406 -4.00585938 8.97070312 C-3.94301758 7.48666992 -3.94301758 7.48666992 -3.87890625 5.97265625 C-3.84224854 5.05621338 -3.80559082 4.13977051 -3.76782227 3.19555664 C-3.46598688 0.05984225 -3.1846441 0.07767425 0 0 Z " fill="#000000" transform="translate(43.5625,-0.0625)"/>
</svg>
