<?xml version="1.0" encoding="UTF-8"?>
<svg version="1.1" xmlns="http://www.w3.org/2000/svg" width="512" height="512">
<path d="M0 0 C6.82942129 4.04460872 11.32728827 9.54041085 13.51171875 17.12890625 C13.82142639 20.30844116 13.82142639 20.30844116 13.90649414 23.76318359 C13.94315689 25.06669769 13.97981964 26.37021179 14.01759338 27.71322632 C14.04831306 29.13042941 14.07890334 30.54763531 14.109375 31.96484375 C14.14810887 33.44579281 14.18771203 34.92671935 14.22813416 36.40762329 C14.33268293 40.31416068 14.42658408 44.22087983 14.5178833 48.12774658 C14.66411123 54.29546004 14.8276921 60.46275673 14.98814011 66.6301136 C15.04717803 68.91406676 15.10486761 71.19805156 15.1625061 73.48204041 C15.36900085 81.54416089 15.63431842 89.59992881 16.0078125 97.65625 C16.85262916 116.19680279 17.1118462 134.76216373 17.51171875 153.31640625 C17.65582025 159.98025651 17.80123159 166.64407554 17.94949341 173.30783463 C17.99104482 175.17858323 18.03228323 177.04933882 18.07321167 178.92010117 C18.28745403 188.66552915 18.53772134 198.40455783 18.93806458 208.14445496 C20.50833601 246.75398558 19.35808317 285.42732964 18.30075073 324.03491592 C18.19769911 327.80956861 18.0964014 331.58426472 17.99560547 335.35897827 C17.61665871 349.53412925 17.22703233 363.70895185 16.8273983 377.88353443 C16.58804459 386.37844871 16.35444689 394.87350484 16.12353516 403.36865234 C15.82780505 414.22165209 15.51515786 425.07406408 15.18960571 435.9262085 C15.0703535 439.91406428 14.95715202 443.90202011 14.84921265 447.89019775 C14.72344477 452.52088963 14.58440106 457.1509895 14.43475914 461.78096962 C14.38278263 463.45580453 14.33541775 465.13079033 14.29316139 466.80589867 C14.01237312 477.78724951 13.78001848 486.86060652 5.51171875 495.12890625 C-0.80939763 499.57499485 -6.87571392 500.97203168 -14.48828125 500.12890625 C-21.70999659 498.23606934 -26.24236635 494.15081325 -30.48828125 488.12890625 C-34.23550243 481.47593463 -33.63893668 473.32662695 -33.734375 465.875 C-33.765728 464.05932232 -33.79731438 462.24364865 -33.82910156 460.42797852 C-33.85212341 459.00015549 -33.85212341 459.00015549 -33.87561035 457.54348755 C-34.53211027 418.58756489 -36.35495176 379.82183066 -39.63954735 341.00182629 C-39.80883576 339.00076363 -39.97671019 336.99958152 -40.14456177 334.99839783 C-40.35132377 332.54579065 -40.56188485 330.09349941 -40.77706909 327.64161682 C-41.32912121 321.11734568 -41.6246143 314.67647748 -41.48828125 308.12890625 C-42.09440247 308.27882523 -42.70052368 308.4287442 -43.32501221 308.58320618 C-71.56737401 315.54198509 -99.53348567 317.00084993 -128.48828125 318.12890625 C-120.57010531 317.62974756 -113.11405879 318.49539778 -106.48828125 323.12890625 C-99.28857034 332.49542701 -96.19525604 345.02587113 -92.51568604 356.09197998 C-90.65155047 361.60221544 -88.66011027 367.06694211 -86.6875 372.5390625 C-81.91412806 385.8441097 -77.28982013 399.19801115 -72.70800781 412.57006836 C-71.51328811 416.05594289 -70.3156599 419.54080474 -69.1171875 423.02539062 C-66.92171047 429.41178673 -64.73326396 435.80055811 -62.55078125 442.19140625 C-62.22353058 443.14947174 -61.89627991 444.10753723 -61.55911255 445.09463501 C-59.51170988 451.09823476 -57.48697694 457.10891861 -55.48828125 463.12890625 C-55.23190887 463.89668396 -54.9755365 464.66446167 -54.71139526 465.45550537 C-53.99152774 467.62344821 -53.28445342 469.79510076 -52.58203125 471.96875 C-52.18822266 473.17781006 -51.79441406 474.38687012 -51.38867188 475.63256836 C-49.54583395 482.78855587 -49.02260235 490.63762282 -51.98828125 497.56640625 C-55.90985678 504.02384158 -62.25124028 509.07841131 -69.48828125 511.12890625 C-78.58411712 512.14804752 -85.44592367 510.72074281 -92.88806152 505.41946411 C-95.77504464 502.8762937 -97.26549183 500.57509313 -99.12695312 497.21435547 C-99.46158318 496.61141096 -99.79621323 496.00846645 -100.14098358 495.3872509 C-105.11215249 486.31674625 -109.66490231 477.02136126 -114.26953125 467.76171875 C-115.29233005 465.71237828 -116.31548977 463.66321791 -117.33898926 461.61422729 C-120.01578833 456.2530519 -122.6877812 450.88949564 -125.35870361 445.52539062 C-128.05916843 440.10402975 -130.76412792 434.68491274 -133.46875 429.265625 C-136.98942007 422.21026179 -140.50879645 415.15425838 -144.02503109 408.0966835 C-145.35513854 405.42719109 -146.6858369 402.7579939 -148.01661682 400.08883667 C-149.61997184 396.87272407 -151.22066362 393.65530887 -152.81919861 390.4367981 C-153.53104858 389.00635383 -154.24292535 387.57592289 -154.95483398 386.14550781 C-155.26729568 385.51469866 -155.57975739 384.8838895 -155.90168762 384.23396492 C-158.71179994 378.594645 -161.82538099 373.16331117 -165.05078125 367.75390625 C-166.25576332 365.70866021 -167.46016824 363.66307405 -168.6640625 361.6171875 C-169.28361816 360.56740723 -169.90317383 359.51762695 -170.54150391 358.43603516 C-173.62823941 353.19237839 -176.68900479 347.93386358 -179.73751831 342.66790771 C-180.71877561 340.97505709 -181.70419529 339.28462137 -182.68969727 337.59423828 C-183.28838623 336.56024902 -183.8870752 335.52625977 -184.50390625 334.4609375 C-185.03274414 333.55061768 -185.56158203 332.64029785 -186.10644531 331.70239258 C-189.6833494 325.04088269 -189.6833494 325.04088269 -188.98095703 321.75708008 C-188.63532715 320.95810303 -188.28969727 320.15912598 -187.93359375 319.3359375 C-187.56621094 318.45873047 -187.19882813 317.58152344 -186.8203125 316.67773438 C-186.42199219 315.77474609 -186.02367187 314.87175781 -185.61328125 313.94140625 C-184.84248097 312.13651253 -184.07412535 310.33057219 -183.30859375 308.5234375 C-182.96070801 307.72784424 -182.61282227 306.93225098 -182.25439453 306.11254883 C-181.36818827 304.17236551 -181.36818827 304.17236551 -181.48828125 302.12890625 C-181.8128833 302.64348389 -182.13748535 303.15806152 -182.47192383 303.68823242 C-189.4999965 314.81469667 -196.60642626 325.88557059 -203.82659912 336.88809204 C-205.05878336 338.76610252 -206.28951621 340.64505774 -207.52001953 342.52416992 C-210.99863317 347.83306349 -214.48429252 353.13609058 -218.02734375 358.40234375 C-225.11497611 369.00032951 -231.38532349 379.94895846 -237.47290039 391.13964844 C-241.72898841 398.96255727 -246.09216178 406.70459903 -250.61328125 414.37890625 C-255.32755709 422.38318731 -259.91956026 430.44320871 -264.42578125 438.56640625 C-269.78398833 448.20982267 -275.35954321 457.70176269 -281.07373047 467.13818359 C-285.43455784 474.34287948 -289.6941873 481.59693527 -293.81323242 488.94287109 C-298.94929581 497.97164987 -305.08295915 507.84848373 -315.48828125 511.12890625 C-323.34030498 511.97273233 -330.86923937 512.22270002 -337.625 507.66796875 C-343.89044462 502.49273776 -347.11340793 497.23342266 -348.48828125 489.12890625 C-349.15776208 473.64486937 -338.84145284 456.89277743 -332.86328125 442.94140625 C-332.35684082 441.75616364 -331.85040039 440.57092102 -331.32861328 439.34976196 C-321.57500811 416.52353146 -311.63946547 393.78104867 -301.48828125 371.12890625 C-301.13316467 370.3361731 -300.7780481 369.54343994 -300.41217041 368.72668457 C-298.05154549 363.46045679 -295.67971445 358.1993858 -293.30078125 352.94140625 C-293.00776123 352.29174896 -292.71474121 351.64209167 -292.4128418 350.9727478 C-288.34196251 341.95880306 -284.02442554 333.09415176 -279.56539917 324.26724243 C-277.66391243 320.49233736 -275.78482618 316.70628198 -273.90234375 312.921875 C-258.677758 282.36016425 -258.677758 282.36016425 -250.7265625 267.46875 C-248.71929518 263.67583793 -246.75546897 259.86054311 -244.78515625 256.04833984 C-239.96284538 246.72623831 -235.0966015 237.42856741 -230.11328125 228.19140625 C-229.418396 226.88852661 -229.418396 226.88852661 -228.70947266 225.55932617 C-220.08158316 209.68308672 -211.12079392 200.53773662 -194.40722656 193.90625 C-192.71579884 193.22107114 -191.04879704 192.47624338 -189.38671875 191.72265625 C-168.21030337 182.15535013 -144.8306835 181.77109869 -122.00512695 181.81323242 C-118.45557532 181.81637983 -114.90687053 181.79288745 -111.35742188 181.76757812 C-91.34078184 181.71102365 -71.46004961 183.12537282 -51.98828125 188.00390625 C-50.92367676 188.25930176 -49.85907227 188.51469727 -48.76220703 188.77783203 C-39.91682592 190.93410229 -31.17176022 193.39566635 -22.48828125 196.12890625 C-23.44089844 195.58621094 -24.39351563 195.04351562 -25.375 194.484375 C-26.64194369 193.76174786 -27.90886984 193.03908998 -29.17578125 192.31640625 C-29.80162109 191.95998047 -30.42746094 191.60355469 -31.07226562 191.23632812 C-31.68779297 190.88505859 -32.30332031 190.53378906 -32.9375 190.171875 C-33.49783936 189.8524292 -34.05817871 189.5329834 -34.63549805 189.20385742 C-36.93460657 187.86995641 -39.21147548 186.50045541 -41.48828125 185.12890625 C-41.40787598 184.02828857 -41.3274707 182.9276709 -41.24462891 181.79370117 C-41.1909465 181.05887512 -41.1372641 180.32404907 -41.08195496 179.56695557 C-40.96037594 177.90341661 -40.83872049 176.23988324 -40.71699524 174.57635498 C-40.37580943 169.91306141 -40.03570392 165.24969319 -39.69750977 160.58618164 C-38.51883362 144.36572279 -38.51883362 144.36572279 -37.9140625 137.08203125 C-35.69680765 110.10579037 -34.71091122 82.99176428 -34.2109375 55.93359375 C-34.18083839 54.32822754 -34.18083839 54.32822754 -34.15013123 52.69042969 C-34.05687397 47.55444596 -33.97728653 42.41871062 -33.91772461 37.28222656 C-33.8892742 35.42122221 -33.86071545 33.56021951 -33.83203125 31.69921875 C-33.824244 30.46315384 -33.824244 30.46315384 -33.81629944 29.20211792 C-33.67480237 20.95201048 -33.05721545 12.57714586 -27.48828125 6.12890625 C-19.54311284 -0.69270299 -10.43111598 -3.65170936 0 0 Z " fill="#000000" transform="translate(355.48828125,0.87109375)"/>
<path d="M0 0 C13.32518287 10.46489297 20.30680843 23.31723929 22.9375 39.9375 C24.55918911 55.73230763 19.10733686 71.9592958 9.35546875 84.37109375 C-1.243026 96.92936082 -16.85930494 105.67676358 -33.37011719 107.14233398 C-35.70931658 107.23967678 -38.03387717 107.26684434 -40.375 107.25 C-41.20459229 107.24436035 -42.03418457 107.2387207 -42.88891602 107.23291016 C-58.91324197 106.91800464 -72.08738315 100.92359467 -83.4296875 89.7421875 C-86.88332222 86.06309295 -89.60940753 82.33501693 -92.0625 77.9375 C-92.43761719 77.3290625 -92.81273437 76.720625 -93.19921875 76.09375 C-100.37705854 63.49917609 -100.37946442 48.27664028 -97.1640625 34.55859375 C-91.94042182 17.38726429 -81.38192012 4.97277982 -65.9296875 -3.8515625 C-44.79301117 -14.39393423 -19.49857794 -13.79407594 0 0 Z " fill="#000000" transform="translate(482.0625,208.0625)"/>
</svg>
