<?xml version="1.0" standalone="no"?>
<!DOCTYPE svg PUBLIC "-//W3C//DTD SVG 20010904//EN"
 "http://www.w3.org/TR/2001/REC-SVG-20010904/DTD/svg10.dtd">
<svg version="1.0" xmlns="http://www.w3.org/2000/svg"
 width="100.000000pt" height="100.000000pt" viewBox="0 0 100.000000 100.000000"
 preserveAspectRatio="xMidYMid meet">

<g transform="translate(0.000000,100.000000) scale(0.100000,-0.100000)"
fill="#000000" stroke="none">
<path d="M448 824 c-30 -16 -58 -61 -58 -94 0 -53 57 -110 110 -110 53 0 110
57 110 110 0 34 -28 78 -60 95 -36 19 -67 19 -102 -1z"/>
<path d="M405 587 c-99 -26 -106 -32 -150 -143 -38 -95 -44 -105 -108 -159
-68 -59 -79 -81 -51 -109 18 -19 19 -19 47 -5 69 36 146 112 180 176 l37 68
-3 -95 -2 -95 -80 -52 c-44 -29 -86 -60 -92 -70 -37 -49 9 -103 87 -103 43 0
48 2 43 20 -18 67 32 102 182 129 94 17 112 18 124 6 12 -12 11 -15 -10 -24
-13 -5 -67 -17 -119 -26 -103 -18 -140 -35 -140 -65 0 -37 32 -42 240 -38 178
3 200 5 219 22 43 39 22 75 -83 146 -85 57 -86 59 -86 158 l1 87 36 -68 c26
-50 52 -80 97 -116 100 -79 129 -86 143 -33 5 21 0 31 -28 55 -19 17 -50 45
-70 62 -26 24 -45 57 -73 128 -20 52 -42 100 -49 105 -48 39 -209 60 -292 39z"/>
</g>
</svg>
